%TF.GenerationSoftware,KiCad,Pcbnew,(5.1.10)-1*%
%TF.CreationDate,2021-10-10T21:05:51-06:00*%
%TF.ProjectId,ESP32_Boardv2.0,45535033-325f-4426-9f61-726476322e30,rev?*%
%TF.SameCoordinates,Original*%
%TF.FileFunction,Legend,Bot*%
%TF.FilePolarity,Positive*%
%FSLAX46Y46*%
G04 Gerber Fmt 4.6, Leading zero omitted, Abs format (unit mm)*
G04 Created by KiCad (PCBNEW (5.1.10)-1) date 2021-10-10 21:05:51*
%MOMM*%
%LPD*%
G01*
G04 APERTURE LIST*
%ADD10C,0.150000*%
%ADD11C,0.010000*%
G04 APERTURE END LIST*
D10*
X124565714Y-56608571D02*
X124232380Y-56608571D01*
X124089523Y-57132380D02*
X124565714Y-57132380D01*
X124565714Y-56132380D01*
X124089523Y-56132380D01*
X123708571Y-57084761D02*
X123565714Y-57132380D01*
X123327619Y-57132380D01*
X123232380Y-57084761D01*
X123184761Y-57037142D01*
X123137142Y-56941904D01*
X123137142Y-56846666D01*
X123184761Y-56751428D01*
X123232380Y-56703809D01*
X123327619Y-56656190D01*
X123518095Y-56608571D01*
X123613333Y-56560952D01*
X123660952Y-56513333D01*
X123708571Y-56418095D01*
X123708571Y-56322857D01*
X123660952Y-56227619D01*
X123613333Y-56180000D01*
X123518095Y-56132380D01*
X123280000Y-56132380D01*
X123137142Y-56180000D01*
X122708571Y-57132380D02*
X122708571Y-56132380D01*
X122327619Y-56132380D01*
X122232380Y-56180000D01*
X122184761Y-56227619D01*
X122137142Y-56322857D01*
X122137142Y-56465714D01*
X122184761Y-56560952D01*
X122232380Y-56608571D01*
X122327619Y-56656190D01*
X122708571Y-56656190D01*
X121803809Y-56132380D02*
X121184761Y-56132380D01*
X121518095Y-56513333D01*
X121375238Y-56513333D01*
X121280000Y-56560952D01*
X121232380Y-56608571D01*
X121184761Y-56703809D01*
X121184761Y-56941904D01*
X121232380Y-57037142D01*
X121280000Y-57084761D01*
X121375238Y-57132380D01*
X121660952Y-57132380D01*
X121756190Y-57084761D01*
X121803809Y-57037142D01*
X120803809Y-56227619D02*
X120756190Y-56180000D01*
X120660952Y-56132380D01*
X120422857Y-56132380D01*
X120327619Y-56180000D01*
X120280000Y-56227619D01*
X120232380Y-56322857D01*
X120232380Y-56418095D01*
X120280000Y-56560952D01*
X120851428Y-57132380D01*
X120232380Y-57132380D01*
X119041904Y-57132380D02*
X119041904Y-56132380D01*
X118803809Y-56132380D01*
X118660952Y-56180000D01*
X118565714Y-56275238D01*
X118518095Y-56370476D01*
X118470476Y-56560952D01*
X118470476Y-56703809D01*
X118518095Y-56894285D01*
X118565714Y-56989523D01*
X118660952Y-57084761D01*
X118803809Y-57132380D01*
X119041904Y-57132380D01*
X117660952Y-57084761D02*
X117756190Y-57132380D01*
X117946666Y-57132380D01*
X118041904Y-57084761D01*
X118089523Y-56989523D01*
X118089523Y-56608571D01*
X118041904Y-56513333D01*
X117946666Y-56465714D01*
X117756190Y-56465714D01*
X117660952Y-56513333D01*
X117613333Y-56608571D01*
X117613333Y-56703809D01*
X118089523Y-56799047D01*
X117280000Y-56465714D02*
X117041904Y-57132380D01*
X116803809Y-56465714D01*
X115756190Y-56465714D02*
X115518095Y-57132380D01*
X115280000Y-56465714D01*
X114375238Y-57132380D02*
X114946666Y-57132380D01*
X114660952Y-57132380D02*
X114660952Y-56132380D01*
X114756190Y-56275238D01*
X114851428Y-56370476D01*
X114946666Y-56418095D01*
X113946666Y-57037142D02*
X113899047Y-57084761D01*
X113946666Y-57132380D01*
X113994285Y-57084761D01*
X113946666Y-57037142D01*
X113946666Y-57132380D01*
X113280000Y-56132380D02*
X113184761Y-56132380D01*
X113089523Y-56180000D01*
X113041904Y-56227619D01*
X112994285Y-56322857D01*
X112946666Y-56513333D01*
X112946666Y-56751428D01*
X112994285Y-56941904D01*
X113041904Y-57037142D01*
X113089523Y-57084761D01*
X113184761Y-57132380D01*
X113280000Y-57132380D01*
X113375238Y-57084761D01*
X113422857Y-57037142D01*
X113470476Y-56941904D01*
X113518095Y-56751428D01*
X113518095Y-56513333D01*
X113470476Y-56322857D01*
X113422857Y-56227619D01*
X113375238Y-56180000D01*
X113280000Y-56132380D01*
X125590952Y-59201904D02*
X125590952Y-58401904D01*
X125248095Y-59201904D02*
X125248095Y-58782857D01*
X125286190Y-58706666D01*
X125362380Y-58668571D01*
X125476666Y-58668571D01*
X125552857Y-58706666D01*
X125590952Y-58744761D01*
X124981428Y-58668571D02*
X124676666Y-58668571D01*
X124867142Y-58401904D02*
X124867142Y-59087619D01*
X124829047Y-59163809D01*
X124752857Y-59201904D01*
X124676666Y-59201904D01*
X124524285Y-58668571D02*
X124219523Y-58668571D01*
X124410000Y-58401904D02*
X124410000Y-59087619D01*
X124371904Y-59163809D01*
X124295714Y-59201904D01*
X124219523Y-59201904D01*
X123952857Y-58668571D02*
X123952857Y-59468571D01*
X123952857Y-58706666D02*
X123876666Y-58668571D01*
X123724285Y-58668571D01*
X123648095Y-58706666D01*
X123610000Y-58744761D01*
X123571904Y-58820952D01*
X123571904Y-59049523D01*
X123610000Y-59125714D01*
X123648095Y-59163809D01*
X123724285Y-59201904D01*
X123876666Y-59201904D01*
X123952857Y-59163809D01*
X123267142Y-59163809D02*
X123190952Y-59201904D01*
X123038571Y-59201904D01*
X122962380Y-59163809D01*
X122924285Y-59087619D01*
X122924285Y-59049523D01*
X122962380Y-58973333D01*
X123038571Y-58935238D01*
X123152857Y-58935238D01*
X123229047Y-58897142D01*
X123267142Y-58820952D01*
X123267142Y-58782857D01*
X123229047Y-58706666D01*
X123152857Y-58668571D01*
X123038571Y-58668571D01*
X122962380Y-58706666D01*
X122581428Y-59125714D02*
X122543333Y-59163809D01*
X122581428Y-59201904D01*
X122619523Y-59163809D01*
X122581428Y-59125714D01*
X122581428Y-59201904D01*
X122581428Y-58706666D02*
X122543333Y-58744761D01*
X122581428Y-58782857D01*
X122619523Y-58744761D01*
X122581428Y-58706666D01*
X122581428Y-58782857D01*
X121629047Y-58363809D02*
X122314761Y-59392380D01*
X120790952Y-58363809D02*
X121476666Y-59392380D01*
X120181428Y-58668571D02*
X120181428Y-59316190D01*
X120219523Y-59392380D01*
X120257619Y-59430476D01*
X120333809Y-59468571D01*
X120448095Y-59468571D01*
X120524285Y-59430476D01*
X120181428Y-59163809D02*
X120257619Y-59201904D01*
X120410000Y-59201904D01*
X120486190Y-59163809D01*
X120524285Y-59125714D01*
X120562380Y-59049523D01*
X120562380Y-58820952D01*
X120524285Y-58744761D01*
X120486190Y-58706666D01*
X120410000Y-58668571D01*
X120257619Y-58668571D01*
X120181428Y-58706666D01*
X119800476Y-59201904D02*
X119800476Y-58668571D01*
X119800476Y-58401904D02*
X119838571Y-58440000D01*
X119800476Y-58478095D01*
X119762380Y-58440000D01*
X119800476Y-58401904D01*
X119800476Y-58478095D01*
X119533809Y-58668571D02*
X119229047Y-58668571D01*
X119419523Y-58401904D02*
X119419523Y-59087619D01*
X119381428Y-59163809D01*
X119305238Y-59201904D01*
X119229047Y-59201904D01*
X118962380Y-59201904D02*
X118962380Y-58401904D01*
X118619523Y-59201904D02*
X118619523Y-58782857D01*
X118657619Y-58706666D01*
X118733809Y-58668571D01*
X118848095Y-58668571D01*
X118924285Y-58706666D01*
X118962380Y-58744761D01*
X117895714Y-58668571D02*
X117895714Y-59201904D01*
X118238571Y-58668571D02*
X118238571Y-59087619D01*
X118200476Y-59163809D01*
X118124285Y-59201904D01*
X118010000Y-59201904D01*
X117933809Y-59163809D01*
X117895714Y-59125714D01*
X117514761Y-59201904D02*
X117514761Y-58401904D01*
X117514761Y-58706666D02*
X117438571Y-58668571D01*
X117286190Y-58668571D01*
X117210000Y-58706666D01*
X117171904Y-58744761D01*
X117133809Y-58820952D01*
X117133809Y-59049523D01*
X117171904Y-59125714D01*
X117210000Y-59163809D01*
X117286190Y-59201904D01*
X117438571Y-59201904D01*
X117514761Y-59163809D01*
X116790952Y-59125714D02*
X116752857Y-59163809D01*
X116790952Y-59201904D01*
X116829047Y-59163809D01*
X116790952Y-59125714D01*
X116790952Y-59201904D01*
X116067142Y-59163809D02*
X116143333Y-59201904D01*
X116295714Y-59201904D01*
X116371904Y-59163809D01*
X116410000Y-59125714D01*
X116448095Y-59049523D01*
X116448095Y-58820952D01*
X116410000Y-58744761D01*
X116371904Y-58706666D01*
X116295714Y-58668571D01*
X116143333Y-58668571D01*
X116067142Y-58706666D01*
X115610000Y-59201904D02*
X115686190Y-59163809D01*
X115724285Y-59125714D01*
X115762380Y-59049523D01*
X115762380Y-58820952D01*
X115724285Y-58744761D01*
X115686190Y-58706666D01*
X115610000Y-58668571D01*
X115495714Y-58668571D01*
X115419523Y-58706666D01*
X115381428Y-58744761D01*
X115343333Y-58820952D01*
X115343333Y-59049523D01*
X115381428Y-59125714D01*
X115419523Y-59163809D01*
X115495714Y-59201904D01*
X115610000Y-59201904D01*
X115000476Y-59201904D02*
X115000476Y-58668571D01*
X115000476Y-58744761D02*
X114962380Y-58706666D01*
X114886190Y-58668571D01*
X114771904Y-58668571D01*
X114695714Y-58706666D01*
X114657619Y-58782857D01*
X114657619Y-59201904D01*
X114657619Y-58782857D02*
X114619523Y-58706666D01*
X114543333Y-58668571D01*
X114429047Y-58668571D01*
X114352857Y-58706666D01*
X114314761Y-58782857D01*
X114314761Y-59201904D01*
X113362380Y-58363809D02*
X114048095Y-59392380D01*
X113095714Y-58668571D02*
X113095714Y-59354285D01*
X113133809Y-59430476D01*
X113210000Y-59468571D01*
X113248095Y-59468571D01*
X113095714Y-58401904D02*
X113133809Y-58440000D01*
X113095714Y-58478095D01*
X113057619Y-58440000D01*
X113095714Y-58401904D01*
X113095714Y-58478095D01*
X112714761Y-59201904D02*
X112714761Y-58668571D01*
X112714761Y-58744761D02*
X112676666Y-58706666D01*
X112600476Y-58668571D01*
X112486190Y-58668571D01*
X112410000Y-58706666D01*
X112371904Y-58782857D01*
X112371904Y-59201904D01*
X112371904Y-58782857D02*
X112333809Y-58706666D01*
X112257619Y-58668571D01*
X112143333Y-58668571D01*
X112067142Y-58706666D01*
X112029047Y-58782857D01*
X112029047Y-59201904D01*
X111648095Y-59201904D02*
X111648095Y-58668571D01*
X111648095Y-58401904D02*
X111686190Y-58440000D01*
X111648095Y-58478095D01*
X111610000Y-58440000D01*
X111648095Y-58401904D01*
X111648095Y-58478095D01*
X111267142Y-58668571D02*
X111267142Y-59201904D01*
X111267142Y-58744761D02*
X111229047Y-58706666D01*
X111152857Y-58668571D01*
X111038571Y-58668571D01*
X110962380Y-58706666D01*
X110924285Y-58782857D01*
X110924285Y-59201904D01*
X110543333Y-58668571D02*
X110543333Y-59354285D01*
X110581428Y-59430476D01*
X110657619Y-59468571D01*
X110695714Y-59468571D01*
X110543333Y-58401904D02*
X110581428Y-58440000D01*
X110543333Y-58478095D01*
X110505238Y-58440000D01*
X110543333Y-58401904D01*
X110543333Y-58478095D01*
X109819523Y-59201904D02*
X109819523Y-58782857D01*
X109857619Y-58706666D01*
X109933809Y-58668571D01*
X110086190Y-58668571D01*
X110162380Y-58706666D01*
X109819523Y-59163809D02*
X109895714Y-59201904D01*
X110086190Y-59201904D01*
X110162380Y-59163809D01*
X110200476Y-59087619D01*
X110200476Y-59011428D01*
X110162380Y-58935238D01*
X110086190Y-58897142D01*
X109895714Y-58897142D01*
X109819523Y-58859047D01*
X109438571Y-59201904D02*
X109438571Y-58668571D01*
X109438571Y-58820952D02*
X109400476Y-58744761D01*
X109362380Y-58706666D01*
X109286190Y-58668571D01*
X109210000Y-58668571D01*
X108638571Y-59163809D02*
X108714761Y-59201904D01*
X108867142Y-59201904D01*
X108943333Y-59163809D01*
X108981428Y-59087619D01*
X108981428Y-58782857D01*
X108943333Y-58706666D01*
X108867142Y-58668571D01*
X108714761Y-58668571D01*
X108638571Y-58706666D01*
X108600476Y-58782857D01*
X108600476Y-58859047D01*
X108981428Y-58935238D01*
X108295714Y-59163809D02*
X108219523Y-59201904D01*
X108067142Y-59201904D01*
X107990952Y-59163809D01*
X107952857Y-59087619D01*
X107952857Y-59049523D01*
X107990952Y-58973333D01*
X108067142Y-58935238D01*
X108181428Y-58935238D01*
X108257619Y-58897142D01*
X108295714Y-58820952D01*
X108295714Y-58782857D01*
X108257619Y-58706666D01*
X108181428Y-58668571D01*
X108067142Y-58668571D01*
X107990952Y-58706666D01*
X107267142Y-58668571D02*
X107267142Y-59201904D01*
X107457619Y-58363809D02*
X107648095Y-58935238D01*
X107152857Y-58935238D01*
X122812857Y-48402380D02*
X122812857Y-47402380D01*
X122479523Y-48116666D01*
X122146190Y-47402380D01*
X122146190Y-48402380D01*
X121717619Y-48354761D02*
X121574761Y-48402380D01*
X121336666Y-48402380D01*
X121241428Y-48354761D01*
X121193809Y-48307142D01*
X121146190Y-48211904D01*
X121146190Y-48116666D01*
X121193809Y-48021428D01*
X121241428Y-47973809D01*
X121336666Y-47926190D01*
X121527142Y-47878571D01*
X121622380Y-47830952D01*
X121670000Y-47783333D01*
X121717619Y-47688095D01*
X121717619Y-47592857D01*
X121670000Y-47497619D01*
X121622380Y-47450000D01*
X121527142Y-47402380D01*
X121289047Y-47402380D01*
X121146190Y-47450000D01*
X119384285Y-48307142D02*
X119431904Y-48354761D01*
X119574761Y-48402380D01*
X119669999Y-48402380D01*
X119812857Y-48354761D01*
X119908095Y-48259523D01*
X119955714Y-48164285D01*
X120003333Y-47973809D01*
X120003333Y-47830952D01*
X119955714Y-47640476D01*
X119908095Y-47545238D01*
X119812857Y-47450000D01*
X119669999Y-47402380D01*
X119574761Y-47402380D01*
X119431904Y-47450000D01*
X119384285Y-47497619D01*
X118955714Y-48402380D02*
X118955714Y-47402380D01*
X118574761Y-47402380D01*
X118479523Y-47450000D01*
X118431904Y-47497619D01*
X118384285Y-47592857D01*
X118384285Y-47735714D01*
X118431904Y-47830952D01*
X118479523Y-47878571D01*
X118574761Y-47926190D01*
X118955714Y-47926190D01*
X117955714Y-47878571D02*
X117622380Y-47878571D01*
X117479523Y-48402380D02*
X117955714Y-48402380D01*
X117955714Y-47402380D01*
X117479523Y-47402380D01*
X122523809Y-45872380D02*
X122523809Y-46586666D01*
X122571428Y-46729523D01*
X122666666Y-46824761D01*
X122809523Y-46872380D01*
X122904761Y-46872380D01*
X121666666Y-46824761D02*
X121761904Y-46872380D01*
X121952380Y-46872380D01*
X122047619Y-46824761D01*
X122095238Y-46729523D01*
X122095238Y-46348571D01*
X122047619Y-46253333D01*
X121952380Y-46205714D01*
X121761904Y-46205714D01*
X121666666Y-46253333D01*
X121619047Y-46348571D01*
X121619047Y-46443809D01*
X122095238Y-46539047D01*
X121238095Y-46824761D02*
X121142857Y-46872380D01*
X120952380Y-46872380D01*
X120857142Y-46824761D01*
X120809523Y-46729523D01*
X120809523Y-46681904D01*
X120857142Y-46586666D01*
X120952380Y-46539047D01*
X121095238Y-46539047D01*
X121190476Y-46491428D01*
X121238095Y-46396190D01*
X121238095Y-46348571D01*
X121190476Y-46253333D01*
X121095238Y-46205714D01*
X120952380Y-46205714D01*
X120857142Y-46253333D01*
X119952380Y-46205714D02*
X119952380Y-46872380D01*
X120380952Y-46205714D02*
X120380952Y-46729523D01*
X120333333Y-46824761D01*
X120238095Y-46872380D01*
X120095238Y-46872380D01*
X120000000Y-46824761D01*
X119952380Y-46777142D01*
X119523809Y-46824761D02*
X119428571Y-46872380D01*
X119238095Y-46872380D01*
X119142857Y-46824761D01*
X119095238Y-46729523D01*
X119095238Y-46681904D01*
X119142857Y-46586666D01*
X119238095Y-46539047D01*
X119380952Y-46539047D01*
X119476190Y-46491428D01*
X119523809Y-46396190D01*
X119523809Y-46348571D01*
X119476190Y-46253333D01*
X119380952Y-46205714D01*
X119238095Y-46205714D01*
X119142857Y-46253333D01*
X117904761Y-46872380D02*
X117904761Y-45872380D01*
X117571428Y-46586666D01*
X117238095Y-45872380D01*
X117238095Y-46872380D01*
X116761904Y-46872380D02*
X116761904Y-46205714D01*
X116761904Y-45872380D02*
X116809523Y-45920000D01*
X116761904Y-45967619D01*
X116714285Y-45920000D01*
X116761904Y-45872380D01*
X116761904Y-45967619D01*
X116285714Y-46205714D02*
X116285714Y-46872380D01*
X116285714Y-46300952D02*
X116238095Y-46253333D01*
X116142857Y-46205714D01*
X116000000Y-46205714D01*
X115904761Y-46253333D01*
X115857142Y-46348571D01*
X115857142Y-46872380D01*
X115380952Y-46205714D02*
X115380952Y-47062857D01*
X115428571Y-47158095D01*
X115523809Y-47205714D01*
X115571428Y-47205714D01*
X115380952Y-45872380D02*
X115428571Y-45920000D01*
X115380952Y-45967619D01*
X115333333Y-45920000D01*
X115380952Y-45872380D01*
X115380952Y-45967619D01*
X114476190Y-46872380D02*
X114476190Y-46348571D01*
X114523809Y-46253333D01*
X114619047Y-46205714D01*
X114809523Y-46205714D01*
X114904761Y-46253333D01*
X114476190Y-46824761D02*
X114571428Y-46872380D01*
X114809523Y-46872380D01*
X114904761Y-46824761D01*
X114952380Y-46729523D01*
X114952380Y-46634285D01*
X114904761Y-46539047D01*
X114809523Y-46491428D01*
X114571428Y-46491428D01*
X114476190Y-46443809D01*
X114000000Y-46872380D02*
X114000000Y-46205714D01*
X114000000Y-46396190D02*
X113952380Y-46300952D01*
X113904761Y-46253333D01*
X113809523Y-46205714D01*
X113714285Y-46205714D01*
X113000000Y-46824761D02*
X113095238Y-46872380D01*
X113285714Y-46872380D01*
X113380952Y-46824761D01*
X113428571Y-46729523D01*
X113428571Y-46348571D01*
X113380952Y-46253333D01*
X113285714Y-46205714D01*
X113095238Y-46205714D01*
X113000000Y-46253333D01*
X112952380Y-46348571D01*
X112952380Y-46443809D01*
X113428571Y-46539047D01*
X112571428Y-46824761D02*
X112476190Y-46872380D01*
X112285714Y-46872380D01*
X112190476Y-46824761D01*
X112142857Y-46729523D01*
X112142857Y-46681904D01*
X112190476Y-46586666D01*
X112285714Y-46539047D01*
X112428571Y-46539047D01*
X112523809Y-46491428D01*
X112571428Y-46396190D01*
X112571428Y-46348571D01*
X112523809Y-46253333D01*
X112428571Y-46205714D01*
X112285714Y-46205714D01*
X112190476Y-46253333D01*
D11*
%TO.C,G\u002A\u002A\u002A*%
G36*
X117081455Y-33946499D02*
G01*
X117109415Y-34136999D01*
X116627951Y-34137000D01*
X116381774Y-34140826D01*
X116240463Y-34155442D01*
X116182029Y-34185557D01*
X116183037Y-34232250D01*
X116181641Y-34288345D01*
X116106381Y-34317620D01*
X115933534Y-34327544D01*
X115879419Y-34327874D01*
X115424544Y-34353799D01*
X114883870Y-34425819D01*
X114286828Y-34536627D01*
X113662845Y-34678917D01*
X113041352Y-34845383D01*
X112451778Y-35028719D01*
X111923551Y-35221618D01*
X111486101Y-35416775D01*
X111479185Y-35420291D01*
X111165619Y-35580147D01*
X111574435Y-35619066D01*
X111737599Y-35629803D01*
X112008980Y-35642041D01*
X112369812Y-35655176D01*
X112801330Y-35668605D01*
X113284768Y-35681726D01*
X113801361Y-35693935D01*
X114099053Y-35700168D01*
X114614021Y-35711520D01*
X115095767Y-35724203D01*
X115527656Y-35737622D01*
X115893054Y-35751179D01*
X116175326Y-35764278D01*
X116357838Y-35776324D01*
X116414441Y-35783170D01*
X116579234Y-35853243D01*
X116650783Y-35980620D01*
X116681068Y-36065109D01*
X116742776Y-36114425D01*
X116866828Y-36140380D01*
X117084141Y-36154790D01*
X117109602Y-36155936D01*
X117531664Y-36174623D01*
X117599598Y-36505186D01*
X117624301Y-36629129D01*
X117670584Y-36865095D01*
X117735986Y-37200405D01*
X117818045Y-37622377D01*
X117914298Y-38118333D01*
X118022285Y-38675591D01*
X118139542Y-39281473D01*
X118263609Y-39923296D01*
X118335385Y-40294943D01*
X118460672Y-40940423D01*
X118579933Y-41548205D01*
X118690844Y-42106896D01*
X118791082Y-42605102D01*
X118878322Y-43031432D01*
X118950243Y-43374491D01*
X119004519Y-43622886D01*
X119038829Y-43765224D01*
X119049244Y-43795409D01*
X119121971Y-43828395D01*
X119286086Y-43889894D01*
X119511961Y-43969893D01*
X119769968Y-44058377D01*
X120030481Y-44145331D01*
X120263871Y-44220743D01*
X120440512Y-44274597D01*
X120530775Y-44296880D01*
X120533245Y-44297000D01*
X120545365Y-44242090D01*
X120528470Y-44103535D01*
X120512822Y-44027125D01*
X120488904Y-43919285D01*
X120441894Y-43705250D01*
X120374578Y-43397806D01*
X120289743Y-43009742D01*
X120190174Y-42553844D01*
X120078658Y-42042900D01*
X119957981Y-41489697D01*
X119830929Y-40907022D01*
X119700289Y-40307664D01*
X119568847Y-39704410D01*
X119439389Y-39110046D01*
X119314701Y-38537360D01*
X119197569Y-37999140D01*
X119090780Y-37508173D01*
X118997120Y-37077247D01*
X118919375Y-36719148D01*
X118860331Y-36446665D01*
X118822775Y-36272584D01*
X118809492Y-36209694D01*
X118809491Y-36209674D01*
X118868099Y-36208095D01*
X119024638Y-36211512D01*
X119250169Y-36219197D01*
X119355777Y-36223409D01*
X119902072Y-36246069D01*
X119860552Y-36057031D01*
X119819032Y-35867994D01*
X120250891Y-35891952D01*
X120575933Y-35908630D01*
X120959370Y-35926106D01*
X121383125Y-35943779D01*
X121829123Y-35961047D01*
X122279286Y-35977310D01*
X122715540Y-35991965D01*
X123119807Y-36004412D01*
X123474013Y-36014049D01*
X123760079Y-36020276D01*
X123959931Y-36022489D01*
X124055492Y-36020089D01*
X124060969Y-36018698D01*
X124028303Y-35971642D01*
X123903604Y-35879769D01*
X123708072Y-35755768D01*
X123462909Y-35612329D01*
X123189316Y-35462139D01*
X122908494Y-35317888D01*
X122810000Y-35269993D01*
X121896878Y-34891493D01*
X120930331Y-34597680D01*
X119955781Y-34401537D01*
X119619125Y-34358136D01*
X119423138Y-34327515D01*
X119290609Y-34289062D01*
X119254000Y-34259430D01*
X119196292Y-34228465D01*
X119046188Y-34207121D01*
X118869760Y-34200500D01*
X118656040Y-34197107D01*
X118532132Y-34175382D01*
X118460851Y-34118003D01*
X118405013Y-34007648D01*
X118392658Y-33978249D01*
X118299796Y-33755999D01*
X117053496Y-33755999D01*
X117081455Y-33946499D01*
G37*
X117081455Y-33946499D02*
X117109415Y-34136999D01*
X116627951Y-34137000D01*
X116381774Y-34140826D01*
X116240463Y-34155442D01*
X116182029Y-34185557D01*
X116183037Y-34232250D01*
X116181641Y-34288345D01*
X116106381Y-34317620D01*
X115933534Y-34327544D01*
X115879419Y-34327874D01*
X115424544Y-34353799D01*
X114883870Y-34425819D01*
X114286828Y-34536627D01*
X113662845Y-34678917D01*
X113041352Y-34845383D01*
X112451778Y-35028719D01*
X111923551Y-35221618D01*
X111486101Y-35416775D01*
X111479185Y-35420291D01*
X111165619Y-35580147D01*
X111574435Y-35619066D01*
X111737599Y-35629803D01*
X112008980Y-35642041D01*
X112369812Y-35655176D01*
X112801330Y-35668605D01*
X113284768Y-35681726D01*
X113801361Y-35693935D01*
X114099053Y-35700168D01*
X114614021Y-35711520D01*
X115095767Y-35724203D01*
X115527656Y-35737622D01*
X115893054Y-35751179D01*
X116175326Y-35764278D01*
X116357838Y-35776324D01*
X116414441Y-35783170D01*
X116579234Y-35853243D01*
X116650783Y-35980620D01*
X116681068Y-36065109D01*
X116742776Y-36114425D01*
X116866828Y-36140380D01*
X117084141Y-36154790D01*
X117109602Y-36155936D01*
X117531664Y-36174623D01*
X117599598Y-36505186D01*
X117624301Y-36629129D01*
X117670584Y-36865095D01*
X117735986Y-37200405D01*
X117818045Y-37622377D01*
X117914298Y-38118333D01*
X118022285Y-38675591D01*
X118139542Y-39281473D01*
X118263609Y-39923296D01*
X118335385Y-40294943D01*
X118460672Y-40940423D01*
X118579933Y-41548205D01*
X118690844Y-42106896D01*
X118791082Y-42605102D01*
X118878322Y-43031432D01*
X118950243Y-43374491D01*
X119004519Y-43622886D01*
X119038829Y-43765224D01*
X119049244Y-43795409D01*
X119121971Y-43828395D01*
X119286086Y-43889894D01*
X119511961Y-43969893D01*
X119769968Y-44058377D01*
X120030481Y-44145331D01*
X120263871Y-44220743D01*
X120440512Y-44274597D01*
X120530775Y-44296880D01*
X120533245Y-44297000D01*
X120545365Y-44242090D01*
X120528470Y-44103535D01*
X120512822Y-44027125D01*
X120488904Y-43919285D01*
X120441894Y-43705250D01*
X120374578Y-43397806D01*
X120289743Y-43009742D01*
X120190174Y-42553844D01*
X120078658Y-42042900D01*
X119957981Y-41489697D01*
X119830929Y-40907022D01*
X119700289Y-40307664D01*
X119568847Y-39704410D01*
X119439389Y-39110046D01*
X119314701Y-38537360D01*
X119197569Y-37999140D01*
X119090780Y-37508173D01*
X118997120Y-37077247D01*
X118919375Y-36719148D01*
X118860331Y-36446665D01*
X118822775Y-36272584D01*
X118809492Y-36209694D01*
X118809491Y-36209674D01*
X118868099Y-36208095D01*
X119024638Y-36211512D01*
X119250169Y-36219197D01*
X119355777Y-36223409D01*
X119902072Y-36246069D01*
X119860552Y-36057031D01*
X119819032Y-35867994D01*
X120250891Y-35891952D01*
X120575933Y-35908630D01*
X120959370Y-35926106D01*
X121383125Y-35943779D01*
X121829123Y-35961047D01*
X122279286Y-35977310D01*
X122715540Y-35991965D01*
X123119807Y-36004412D01*
X123474013Y-36014049D01*
X123760079Y-36020276D01*
X123959931Y-36022489D01*
X124055492Y-36020089D01*
X124060969Y-36018698D01*
X124028303Y-35971642D01*
X123903604Y-35879769D01*
X123708072Y-35755768D01*
X123462909Y-35612329D01*
X123189316Y-35462139D01*
X122908494Y-35317888D01*
X122810000Y-35269993D01*
X121896878Y-34891493D01*
X120930331Y-34597680D01*
X119955781Y-34401537D01*
X119619125Y-34358136D01*
X119423138Y-34327515D01*
X119290609Y-34289062D01*
X119254000Y-34259430D01*
X119196292Y-34228465D01*
X119046188Y-34207121D01*
X118869760Y-34200500D01*
X118656040Y-34197107D01*
X118532132Y-34175382D01*
X118460851Y-34118003D01*
X118405013Y-34007648D01*
X118392658Y-33978249D01*
X118299796Y-33755999D01*
X117053496Y-33755999D01*
X117081455Y-33946499D01*
G36*
X119813169Y-36807814D02*
G01*
X119664475Y-36822063D01*
X119592416Y-36852944D01*
X119571867Y-36906106D01*
X119571669Y-36915125D01*
X119587264Y-37011844D01*
X119631257Y-37215517D01*
X119699627Y-37510305D01*
X119788358Y-37880368D01*
X119893428Y-38309867D01*
X120010820Y-38782962D01*
X120136515Y-39283813D01*
X120266494Y-39796582D01*
X120396738Y-40305429D01*
X120523228Y-40794515D01*
X120641946Y-41247999D01*
X120748872Y-41650043D01*
X120839988Y-41984807D01*
X120911275Y-42236452D01*
X120958714Y-42389138D01*
X120964843Y-42406032D01*
X121188408Y-42818697D01*
X121519156Y-43179674D01*
X121942863Y-43474554D01*
X122097228Y-43553293D01*
X122317869Y-43650039D01*
X122509806Y-43711681D01*
X122717368Y-43747364D01*
X122984888Y-43766230D01*
X123159250Y-43772338D01*
X123469706Y-43777294D01*
X123687157Y-43767986D01*
X123845204Y-43740195D01*
X123977444Y-43689701D01*
X124028967Y-43663112D01*
X124350257Y-43423819D01*
X124583914Y-43100927D01*
X124731941Y-42690143D01*
X124796340Y-42187174D01*
X124799633Y-42011000D01*
X124795159Y-41793804D01*
X124780611Y-41587361D01*
X124751834Y-41368847D01*
X124704674Y-41115436D01*
X124634976Y-40804303D01*
X124538585Y-40412625D01*
X124435524Y-40010750D01*
X124329518Y-39602351D01*
X124232608Y-39230395D01*
X124149848Y-38914168D01*
X124086293Y-38672958D01*
X124046997Y-38526053D01*
X124038175Y-38494492D01*
X124028805Y-38432007D01*
X124065052Y-38401232D01*
X124172242Y-38397269D01*
X124375703Y-38415218D01*
X124422390Y-38420171D01*
X124633820Y-38437501D01*
X124784581Y-38439721D01*
X124842000Y-38426371D01*
X124827441Y-38352529D01*
X124788016Y-38182532D01*
X124730108Y-37943318D01*
X124674153Y-37717786D01*
X124591828Y-37406777D01*
X124524291Y-37199365D01*
X124462660Y-37074370D01*
X124398053Y-37010616D01*
X124372528Y-36998641D01*
X124267912Y-36980762D01*
X124059358Y-36961314D01*
X123769888Y-36941863D01*
X123422526Y-36923978D01*
X123076227Y-36910407D01*
X122665719Y-36897406D01*
X122365699Y-36890649D01*
X122159762Y-36891154D01*
X122031503Y-36899943D01*
X121964516Y-36918034D01*
X121942397Y-36946449D01*
X121946962Y-36980610D01*
X121989049Y-37134312D01*
X122051989Y-37384687D01*
X122131840Y-37714400D01*
X122224661Y-38106114D01*
X122326512Y-38542494D01*
X122433450Y-39006205D01*
X122541536Y-39479910D01*
X122646828Y-39946275D01*
X122745386Y-40387963D01*
X122833268Y-40787639D01*
X122906533Y-41127967D01*
X122961241Y-41391612D01*
X122993450Y-41561237D01*
X123000500Y-41614954D01*
X122963916Y-41794073D01*
X122873355Y-41940424D01*
X122757602Y-42009911D01*
X122741965Y-42011000D01*
X122634390Y-41957697D01*
X122503187Y-41818543D01*
X122374170Y-41624666D01*
X122302264Y-41480722D01*
X122261387Y-41357339D01*
X122196968Y-41126399D01*
X122113119Y-40804298D01*
X122013953Y-40407431D01*
X121903583Y-39952195D01*
X121786122Y-39454984D01*
X121692480Y-39049687D01*
X121196626Y-36882125D01*
X120876188Y-36843614D01*
X120646591Y-36824093D01*
X120353744Y-36810050D01*
X120063625Y-36804551D01*
X119813169Y-36807814D01*
G37*
X119813169Y-36807814D02*
X119664475Y-36822063D01*
X119592416Y-36852944D01*
X119571867Y-36906106D01*
X119571669Y-36915125D01*
X119587264Y-37011844D01*
X119631257Y-37215517D01*
X119699627Y-37510305D01*
X119788358Y-37880368D01*
X119893428Y-38309867D01*
X120010820Y-38782962D01*
X120136515Y-39283813D01*
X120266494Y-39796582D01*
X120396738Y-40305429D01*
X120523228Y-40794515D01*
X120641946Y-41247999D01*
X120748872Y-41650043D01*
X120839988Y-41984807D01*
X120911275Y-42236452D01*
X120958714Y-42389138D01*
X120964843Y-42406032D01*
X121188408Y-42818697D01*
X121519156Y-43179674D01*
X121942863Y-43474554D01*
X122097228Y-43553293D01*
X122317869Y-43650039D01*
X122509806Y-43711681D01*
X122717368Y-43747364D01*
X122984888Y-43766230D01*
X123159250Y-43772338D01*
X123469706Y-43777294D01*
X123687157Y-43767986D01*
X123845204Y-43740195D01*
X123977444Y-43689701D01*
X124028967Y-43663112D01*
X124350257Y-43423819D01*
X124583914Y-43100927D01*
X124731941Y-42690143D01*
X124796340Y-42187174D01*
X124799633Y-42011000D01*
X124795159Y-41793804D01*
X124780611Y-41587361D01*
X124751834Y-41368847D01*
X124704674Y-41115436D01*
X124634976Y-40804303D01*
X124538585Y-40412625D01*
X124435524Y-40010750D01*
X124329518Y-39602351D01*
X124232608Y-39230395D01*
X124149848Y-38914168D01*
X124086293Y-38672958D01*
X124046997Y-38526053D01*
X124038175Y-38494492D01*
X124028805Y-38432007D01*
X124065052Y-38401232D01*
X124172242Y-38397269D01*
X124375703Y-38415218D01*
X124422390Y-38420171D01*
X124633820Y-38437501D01*
X124784581Y-38439721D01*
X124842000Y-38426371D01*
X124827441Y-38352529D01*
X124788016Y-38182532D01*
X124730108Y-37943318D01*
X124674153Y-37717786D01*
X124591828Y-37406777D01*
X124524291Y-37199365D01*
X124462660Y-37074370D01*
X124398053Y-37010616D01*
X124372528Y-36998641D01*
X124267912Y-36980762D01*
X124059358Y-36961314D01*
X123769888Y-36941863D01*
X123422526Y-36923978D01*
X123076227Y-36910407D01*
X122665719Y-36897406D01*
X122365699Y-36890649D01*
X122159762Y-36891154D01*
X122031503Y-36899943D01*
X121964516Y-36918034D01*
X121942397Y-36946449D01*
X121946962Y-36980610D01*
X121989049Y-37134312D01*
X122051989Y-37384687D01*
X122131840Y-37714400D01*
X122224661Y-38106114D01*
X122326512Y-38542494D01*
X122433450Y-39006205D01*
X122541536Y-39479910D01*
X122646828Y-39946275D01*
X122745386Y-40387963D01*
X122833268Y-40787639D01*
X122906533Y-41127967D01*
X122961241Y-41391612D01*
X122993450Y-41561237D01*
X123000500Y-41614954D01*
X122963916Y-41794073D01*
X122873355Y-41940424D01*
X122757602Y-42009911D01*
X122741965Y-42011000D01*
X122634390Y-41957697D01*
X122503187Y-41818543D01*
X122374170Y-41624666D01*
X122302264Y-41480722D01*
X122261387Y-41357339D01*
X122196968Y-41126399D01*
X122113119Y-40804298D01*
X122013953Y-40407431D01*
X121903583Y-39952195D01*
X121786122Y-39454984D01*
X121692480Y-39049687D01*
X121196626Y-36882125D01*
X120876188Y-36843614D01*
X120646591Y-36824093D01*
X120353744Y-36810050D01*
X120063625Y-36804551D01*
X119813169Y-36807814D01*
G36*
X117855668Y-43014340D02*
G01*
X117795735Y-43086325D01*
X117739443Y-43208888D01*
X117754167Y-43287828D01*
X117829786Y-43371714D01*
X117980016Y-43464099D01*
X118120948Y-43430156D01*
X118161800Y-43395300D01*
X118199731Y-43318903D01*
X118157814Y-43318903D01*
X118147178Y-43297414D01*
X118132861Y-43233375D01*
X118107580Y-43185750D01*
X118047500Y-43185750D01*
X118015750Y-43217500D01*
X117984000Y-43185750D01*
X118015750Y-43154000D01*
X118047500Y-43185750D01*
X118107580Y-43185750D01*
X118073319Y-43121209D01*
X117990706Y-43095720D01*
X117929368Y-43159441D01*
X117920500Y-43221247D01*
X117944945Y-43309050D01*
X117984000Y-43312750D01*
X118042381Y-43320752D01*
X118047500Y-43346044D01*
X118002027Y-43396433D01*
X117968125Y-43392125D01*
X117906930Y-43315725D01*
X117888750Y-43212208D01*
X117928179Y-43088299D01*
X118015936Y-43048737D01*
X118106223Y-43092605D01*
X118153152Y-43217500D01*
X118157814Y-43318903D01*
X118199731Y-43318903D01*
X118233149Y-43251598D01*
X118205662Y-43103433D01*
X118098202Y-42994062D01*
X117973535Y-42963500D01*
X117855668Y-43014340D01*
G37*
X117855668Y-43014340D02*
X117795735Y-43086325D01*
X117739443Y-43208888D01*
X117754167Y-43287828D01*
X117829786Y-43371714D01*
X117980016Y-43464099D01*
X118120948Y-43430156D01*
X118161800Y-43395300D01*
X118199731Y-43318903D01*
X118157814Y-43318903D01*
X118147178Y-43297414D01*
X118132861Y-43233375D01*
X118107580Y-43185750D01*
X118047500Y-43185750D01*
X118015750Y-43217500D01*
X117984000Y-43185750D01*
X118015750Y-43154000D01*
X118047500Y-43185750D01*
X118107580Y-43185750D01*
X118073319Y-43121209D01*
X117990706Y-43095720D01*
X117929368Y-43159441D01*
X117920500Y-43221247D01*
X117944945Y-43309050D01*
X117984000Y-43312750D01*
X118042381Y-43320752D01*
X118047500Y-43346044D01*
X118002027Y-43396433D01*
X117968125Y-43392125D01*
X117906930Y-43315725D01*
X117888750Y-43212208D01*
X117928179Y-43088299D01*
X118015936Y-43048737D01*
X118106223Y-43092605D01*
X118153152Y-43217500D01*
X118157814Y-43318903D01*
X118199731Y-43318903D01*
X118233149Y-43251598D01*
X118205662Y-43103433D01*
X118098202Y-42994062D01*
X117973535Y-42963500D01*
X117855668Y-43014340D01*
G36*
X114097074Y-36626372D02*
G01*
X114072297Y-36630536D01*
X114069867Y-36701439D01*
X114086494Y-36869527D01*
X114118975Y-37106950D01*
X114148920Y-37296424D01*
X114254671Y-37933184D01*
X114865211Y-37978729D01*
X115173783Y-38006669D01*
X115376953Y-38042504D01*
X115496292Y-38096714D01*
X115553372Y-38179779D01*
X115569763Y-38302180D01*
X115570028Y-38321170D01*
X115563844Y-38404389D01*
X115524237Y-38445641D01*
X115421686Y-38453636D01*
X115226668Y-38437082D01*
X115190000Y-38433269D01*
X115019188Y-38415159D01*
X114904081Y-38415362D01*
X114838114Y-38452697D01*
X114814722Y-38545984D01*
X114827339Y-38714042D01*
X114869401Y-38975690D01*
X114913210Y-39226695D01*
X115019446Y-39839640D01*
X115435726Y-39893445D01*
X115658744Y-39925185D01*
X115787153Y-39960344D01*
X115852407Y-40017712D01*
X115885964Y-40116077D01*
X115897142Y-40169069D01*
X115924125Y-40317632D01*
X115932352Y-40397340D01*
X115931264Y-40400823D01*
X115867872Y-40397331D01*
X115701959Y-40380796D01*
X115457045Y-40353742D01*
X115156653Y-40318692D01*
X115080597Y-40309573D01*
X114768823Y-40274241D01*
X114505144Y-40248596D01*
X114313691Y-40234668D01*
X114218594Y-40234489D01*
X114212924Y-40236569D01*
X114213988Y-40303771D01*
X114233779Y-40463913D01*
X114266926Y-40685241D01*
X114308057Y-40936002D01*
X114351800Y-41184443D01*
X114392785Y-41398812D01*
X114425639Y-41547355D01*
X114443272Y-41598227D01*
X114506516Y-41616586D01*
X114677201Y-41662710D01*
X114939833Y-41732503D01*
X115278913Y-41821871D01*
X115678945Y-41926718D01*
X116124433Y-42042949D01*
X116236579Y-42072132D01*
X116694606Y-42191595D01*
X117114417Y-42301726D01*
X117479763Y-42398214D01*
X117774397Y-42476745D01*
X117982071Y-42533006D01*
X118086539Y-42562685D01*
X118093954Y-42565178D01*
X118166999Y-42575924D01*
X118174500Y-42566276D01*
X118162694Y-42496456D01*
X118130998Y-42330128D01*
X118084995Y-42095201D01*
X118030269Y-41819586D01*
X117972404Y-41531193D01*
X117916983Y-41257933D01*
X117869590Y-41027715D01*
X117835808Y-40868450D01*
X117827131Y-40829899D01*
X117737233Y-40707013D01*
X117588716Y-40637140D01*
X117381570Y-40577731D01*
X117186180Y-39563990D01*
X117116735Y-39204254D01*
X117052719Y-38873665D01*
X116999317Y-38598937D01*
X116961718Y-38406782D01*
X116949233Y-38343875D01*
X116930043Y-38203488D01*
X116969603Y-38147578D01*
X117095506Y-38137500D01*
X117096588Y-38137500D01*
X117242424Y-38110822D01*
X117285500Y-38049264D01*
X117274080Y-37947964D01*
X117244244Y-37758787D01*
X117202629Y-37518358D01*
X117155873Y-37263305D01*
X117110613Y-37030254D01*
X117073487Y-36855832D01*
X117058516Y-36796707D01*
X117034602Y-36763035D01*
X116974932Y-36736060D01*
X116864547Y-36714290D01*
X116688485Y-36696234D01*
X116431789Y-36680401D01*
X116079497Y-36665298D01*
X115616649Y-36649434D01*
X115564908Y-36647786D01*
X115147103Y-36635793D01*
X114773254Y-36627446D01*
X114461523Y-36622953D01*
X114230075Y-36622525D01*
X114097074Y-36626372D01*
G37*
X114097074Y-36626372D02*
X114072297Y-36630536D01*
X114069867Y-36701439D01*
X114086494Y-36869527D01*
X114118975Y-37106950D01*
X114148920Y-37296424D01*
X114254671Y-37933184D01*
X114865211Y-37978729D01*
X115173783Y-38006669D01*
X115376953Y-38042504D01*
X115496292Y-38096714D01*
X115553372Y-38179779D01*
X115569763Y-38302180D01*
X115570028Y-38321170D01*
X115563844Y-38404389D01*
X115524237Y-38445641D01*
X115421686Y-38453636D01*
X115226668Y-38437082D01*
X115190000Y-38433269D01*
X115019188Y-38415159D01*
X114904081Y-38415362D01*
X114838114Y-38452697D01*
X114814722Y-38545984D01*
X114827339Y-38714042D01*
X114869401Y-38975690D01*
X114913210Y-39226695D01*
X115019446Y-39839640D01*
X115435726Y-39893445D01*
X115658744Y-39925185D01*
X115787153Y-39960344D01*
X115852407Y-40017712D01*
X115885964Y-40116077D01*
X115897142Y-40169069D01*
X115924125Y-40317632D01*
X115932352Y-40397340D01*
X115931264Y-40400823D01*
X115867872Y-40397331D01*
X115701959Y-40380796D01*
X115457045Y-40353742D01*
X115156653Y-40318692D01*
X115080597Y-40309573D01*
X114768823Y-40274241D01*
X114505144Y-40248596D01*
X114313691Y-40234668D01*
X114218594Y-40234489D01*
X114212924Y-40236569D01*
X114213988Y-40303771D01*
X114233779Y-40463913D01*
X114266926Y-40685241D01*
X114308057Y-40936002D01*
X114351800Y-41184443D01*
X114392785Y-41398812D01*
X114425639Y-41547355D01*
X114443272Y-41598227D01*
X114506516Y-41616586D01*
X114677201Y-41662710D01*
X114939833Y-41732503D01*
X115278913Y-41821871D01*
X115678945Y-41926718D01*
X116124433Y-42042949D01*
X116236579Y-42072132D01*
X116694606Y-42191595D01*
X117114417Y-42301726D01*
X117479763Y-42398214D01*
X117774397Y-42476745D01*
X117982071Y-42533006D01*
X118086539Y-42562685D01*
X118093954Y-42565178D01*
X118166999Y-42575924D01*
X118174500Y-42566276D01*
X118162694Y-42496456D01*
X118130998Y-42330128D01*
X118084995Y-42095201D01*
X118030269Y-41819586D01*
X117972404Y-41531193D01*
X117916983Y-41257933D01*
X117869590Y-41027715D01*
X117835808Y-40868450D01*
X117827131Y-40829899D01*
X117737233Y-40707013D01*
X117588716Y-40637140D01*
X117381570Y-40577731D01*
X117186180Y-39563990D01*
X117116735Y-39204254D01*
X117052719Y-38873665D01*
X116999317Y-38598937D01*
X116961718Y-38406782D01*
X116949233Y-38343875D01*
X116930043Y-38203488D01*
X116969603Y-38147578D01*
X117095506Y-38137500D01*
X117096588Y-38137500D01*
X117242424Y-38110822D01*
X117285500Y-38049264D01*
X117274080Y-37947964D01*
X117244244Y-37758787D01*
X117202629Y-37518358D01*
X117155873Y-37263305D01*
X117110613Y-37030254D01*
X117073487Y-36855832D01*
X117058516Y-36796707D01*
X117034602Y-36763035D01*
X116974932Y-36736060D01*
X116864547Y-36714290D01*
X116688485Y-36696234D01*
X116431789Y-36680401D01*
X116079497Y-36665298D01*
X115616649Y-36649434D01*
X115564908Y-36647786D01*
X115147103Y-36635793D01*
X114773254Y-36627446D01*
X114461523Y-36622953D01*
X114230075Y-36622525D01*
X114097074Y-36626372D01*
G36*
X110576609Y-36920606D02*
G01*
X110684277Y-37568078D01*
X110877227Y-38152055D01*
X111148713Y-38661292D01*
X111491991Y-39084540D01*
X111900314Y-39410553D01*
X112150274Y-39544385D01*
X112269782Y-39599459D01*
X112358131Y-39653413D01*
X112423938Y-39726403D01*
X112475821Y-39838582D01*
X112522400Y-40010104D01*
X112572292Y-40261123D01*
X112634115Y-40611793D01*
X112652834Y-40719632D01*
X112731877Y-41174515D01*
X113260141Y-41307007D01*
X113553606Y-41379376D01*
X113744168Y-41419883D01*
X113851946Y-41428195D01*
X113897060Y-41403980D01*
X113899630Y-41346905D01*
X113889091Y-41296625D01*
X113868031Y-41187176D01*
X113831607Y-40977830D01*
X113783119Y-40689186D01*
X113725870Y-40341842D01*
X113663159Y-39956398D01*
X113598288Y-39553453D01*
X113534558Y-39153605D01*
X113475269Y-38777454D01*
X113435691Y-38522643D01*
X112264308Y-38522643D01*
X112238332Y-38558111D01*
X112180586Y-38538643D01*
X112166875Y-38531381D01*
X112036217Y-38436924D01*
X111911303Y-38317955D01*
X111787061Y-38154866D01*
X111672389Y-37961519D01*
X111592484Y-37784485D01*
X111570500Y-37688037D01*
X111624424Y-37654851D01*
X111755731Y-37648606D01*
X111918728Y-37664927D01*
X112067720Y-37699436D01*
X112153523Y-37743875D01*
X112182568Y-37825933D01*
X112215397Y-37995889D01*
X112241897Y-38192175D01*
X112263750Y-38408559D01*
X112264308Y-38522643D01*
X113435691Y-38522643D01*
X113423723Y-38445598D01*
X113383220Y-38178636D01*
X113357062Y-37997168D01*
X113348500Y-37923128D01*
X113403606Y-37867454D01*
X113539000Y-37869954D01*
X113672770Y-37876500D01*
X113721833Y-37824385D01*
X113726136Y-37747832D01*
X113714544Y-37609855D01*
X113687783Y-37404725D01*
X113651638Y-37167434D01*
X113611894Y-36932972D01*
X113574336Y-36736333D01*
X113544748Y-36612507D01*
X113534483Y-36588557D01*
X113465998Y-36579161D01*
X113288554Y-36567132D01*
X113020147Y-36553342D01*
X112678768Y-36538659D01*
X112282412Y-36523956D01*
X112020925Y-36515336D01*
X110534600Y-36468605D01*
X110576609Y-36920606D01*
G37*
X110576609Y-36920606D02*
X110684277Y-37568078D01*
X110877227Y-38152055D01*
X111148713Y-38661292D01*
X111491991Y-39084540D01*
X111900314Y-39410553D01*
X112150274Y-39544385D01*
X112269782Y-39599459D01*
X112358131Y-39653413D01*
X112423938Y-39726403D01*
X112475821Y-39838582D01*
X112522400Y-40010104D01*
X112572292Y-40261123D01*
X112634115Y-40611793D01*
X112652834Y-40719632D01*
X112731877Y-41174515D01*
X113260141Y-41307007D01*
X113553606Y-41379376D01*
X113744168Y-41419883D01*
X113851946Y-41428195D01*
X113897060Y-41403980D01*
X113899630Y-41346905D01*
X113889091Y-41296625D01*
X113868031Y-41187176D01*
X113831607Y-40977830D01*
X113783119Y-40689186D01*
X113725870Y-40341842D01*
X113663159Y-39956398D01*
X113598288Y-39553453D01*
X113534558Y-39153605D01*
X113475269Y-38777454D01*
X113435691Y-38522643D01*
X112264308Y-38522643D01*
X112238332Y-38558111D01*
X112180586Y-38538643D01*
X112166875Y-38531381D01*
X112036217Y-38436924D01*
X111911303Y-38317955D01*
X111787061Y-38154866D01*
X111672389Y-37961519D01*
X111592484Y-37784485D01*
X111570500Y-37688037D01*
X111624424Y-37654851D01*
X111755731Y-37648606D01*
X111918728Y-37664927D01*
X112067720Y-37699436D01*
X112153523Y-37743875D01*
X112182568Y-37825933D01*
X112215397Y-37995889D01*
X112241897Y-38192175D01*
X112263750Y-38408559D01*
X112264308Y-38522643D01*
X113435691Y-38522643D01*
X113423723Y-38445598D01*
X113383220Y-38178636D01*
X113357062Y-37997168D01*
X113348500Y-37923128D01*
X113403606Y-37867454D01*
X113539000Y-37869954D01*
X113672770Y-37876500D01*
X113721833Y-37824385D01*
X113726136Y-37747832D01*
X113714544Y-37609855D01*
X113687783Y-37404725D01*
X113651638Y-37167434D01*
X113611894Y-36932972D01*
X113574336Y-36736333D01*
X113544748Y-36612507D01*
X113534483Y-36588557D01*
X113465998Y-36579161D01*
X113288554Y-36567132D01*
X113020147Y-36553342D01*
X112678768Y-36538659D01*
X112282412Y-36523956D01*
X112020925Y-36515336D01*
X110534600Y-36468605D01*
X110576609Y-36920606D01*
%TD*%
M02*
