%TF.GenerationSoftware,KiCad,Pcbnew,(5.1.10)-1*%
%TF.CreationDate,2021-10-10T21:05:51-06:00*%
%TF.ProjectId,ESP32_Boardv2.0,45535033-325f-4426-9f61-726476322e30,rev?*%
%TF.SameCoordinates,Original*%
%TF.FileFunction,Legend,Top*%
%TF.FilePolarity,Positive*%
%FSLAX46Y46*%
G04 Gerber Fmt 4.6, Leading zero omitted, Abs format (unit mm)*
G04 Created by KiCad (PCBNEW (5.1.10)-1) date 2021-10-10 21:05:51*
%MOMM*%
%LPD*%
G01*
G04 APERTURE LIST*
%ADD10C,0.150000*%
%ADD11C,0.100000*%
%ADD12C,0.120000*%
%ADD13C,0.200000*%
%ADD14C,0.254000*%
G04 APERTURE END LIST*
D10*
X112666190Y-56692380D02*
X112666190Y-57406666D01*
X112618571Y-57549523D01*
X112523333Y-57644761D01*
X112380476Y-57692380D01*
X112285238Y-57692380D01*
X113523333Y-57644761D02*
X113428095Y-57692380D01*
X113237619Y-57692380D01*
X113142380Y-57644761D01*
X113094761Y-57549523D01*
X113094761Y-57168571D01*
X113142380Y-57073333D01*
X113237619Y-57025714D01*
X113428095Y-57025714D01*
X113523333Y-57073333D01*
X113570952Y-57168571D01*
X113570952Y-57263809D01*
X113094761Y-57359047D01*
X113951904Y-57644761D02*
X114047142Y-57692380D01*
X114237619Y-57692380D01*
X114332857Y-57644761D01*
X114380476Y-57549523D01*
X114380476Y-57501904D01*
X114332857Y-57406666D01*
X114237619Y-57359047D01*
X114094761Y-57359047D01*
X113999523Y-57311428D01*
X113951904Y-57216190D01*
X113951904Y-57168571D01*
X113999523Y-57073333D01*
X114094761Y-57025714D01*
X114237619Y-57025714D01*
X114332857Y-57073333D01*
X115237619Y-57025714D02*
X115237619Y-57692380D01*
X114809047Y-57025714D02*
X114809047Y-57549523D01*
X114856666Y-57644761D01*
X114951904Y-57692380D01*
X115094761Y-57692380D01*
X115190000Y-57644761D01*
X115237619Y-57597142D01*
X115666190Y-57644761D02*
X115761428Y-57692380D01*
X115951904Y-57692380D01*
X116047142Y-57644761D01*
X116094761Y-57549523D01*
X116094761Y-57501904D01*
X116047142Y-57406666D01*
X115951904Y-57359047D01*
X115809047Y-57359047D01*
X115713809Y-57311428D01*
X115666190Y-57216190D01*
X115666190Y-57168571D01*
X115713809Y-57073333D01*
X115809047Y-57025714D01*
X115951904Y-57025714D01*
X116047142Y-57073333D01*
X117285238Y-57692380D02*
X117285238Y-56692380D01*
X117618571Y-57406666D01*
X117951904Y-56692380D01*
X117951904Y-57692380D01*
X118428095Y-57692380D02*
X118428095Y-57025714D01*
X118428095Y-56692380D02*
X118380476Y-56740000D01*
X118428095Y-56787619D01*
X118475714Y-56740000D01*
X118428095Y-56692380D01*
X118428095Y-56787619D01*
X118904285Y-57025714D02*
X118904285Y-57692380D01*
X118904285Y-57120952D02*
X118951904Y-57073333D01*
X119047142Y-57025714D01*
X119190000Y-57025714D01*
X119285238Y-57073333D01*
X119332857Y-57168571D01*
X119332857Y-57692380D01*
X119809047Y-57025714D02*
X119809047Y-57882857D01*
X119761428Y-57978095D01*
X119666190Y-58025714D01*
X119618571Y-58025714D01*
X119809047Y-56692380D02*
X119761428Y-56740000D01*
X119809047Y-56787619D01*
X119856666Y-56740000D01*
X119809047Y-56692380D01*
X119809047Y-56787619D01*
X120713809Y-57692380D02*
X120713809Y-57168571D01*
X120666190Y-57073333D01*
X120570952Y-57025714D01*
X120380476Y-57025714D01*
X120285238Y-57073333D01*
X120713809Y-57644761D02*
X120618571Y-57692380D01*
X120380476Y-57692380D01*
X120285238Y-57644761D01*
X120237619Y-57549523D01*
X120237619Y-57454285D01*
X120285238Y-57359047D01*
X120380476Y-57311428D01*
X120618571Y-57311428D01*
X120713809Y-57263809D01*
X121190000Y-57692380D02*
X121190000Y-57025714D01*
X121190000Y-57216190D02*
X121237619Y-57120952D01*
X121285238Y-57073333D01*
X121380476Y-57025714D01*
X121475714Y-57025714D01*
X122190000Y-57644761D02*
X122094761Y-57692380D01*
X121904285Y-57692380D01*
X121809047Y-57644761D01*
X121761428Y-57549523D01*
X121761428Y-57168571D01*
X121809047Y-57073333D01*
X121904285Y-57025714D01*
X122094761Y-57025714D01*
X122190000Y-57073333D01*
X122237619Y-57168571D01*
X122237619Y-57263809D01*
X121761428Y-57359047D01*
X122618571Y-57644761D02*
X122713809Y-57692380D01*
X122904285Y-57692380D01*
X122999523Y-57644761D01*
X123047142Y-57549523D01*
X123047142Y-57501904D01*
X122999523Y-57406666D01*
X122904285Y-57359047D01*
X122761428Y-57359047D01*
X122666190Y-57311428D01*
X122618571Y-57216190D01*
X122618571Y-57168571D01*
X122666190Y-57073333D01*
X122761428Y-57025714D01*
X122904285Y-57025714D01*
X122999523Y-57073333D01*
D11*
X126630000Y-74063333D02*
X126596666Y-74030000D01*
X126563333Y-73930000D01*
X126563333Y-73863333D01*
X126596666Y-73763333D01*
X126663333Y-73696666D01*
X126730000Y-73663333D01*
X126863333Y-73630000D01*
X126963333Y-73630000D01*
X127096666Y-73663333D01*
X127163333Y-73696666D01*
X127230000Y-73763333D01*
X127263333Y-73863333D01*
X127263333Y-73930000D01*
X127230000Y-74030000D01*
X127196666Y-74063333D01*
X126563333Y-74696666D02*
X126563333Y-74363333D01*
X127263333Y-74363333D01*
X126563333Y-74930000D02*
X127263333Y-74930000D01*
X126563333Y-75330000D02*
X126963333Y-75030000D01*
X127263333Y-75330000D02*
X126863333Y-74930000D01*
X126596666Y-71016666D02*
X126563333Y-71116666D01*
X126563333Y-71283333D01*
X126596666Y-71350000D01*
X126630000Y-71383333D01*
X126696666Y-71416666D01*
X126763333Y-71416666D01*
X126830000Y-71383333D01*
X126863333Y-71350000D01*
X126896666Y-71283333D01*
X126930000Y-71150000D01*
X126963333Y-71083333D01*
X126996666Y-71050000D01*
X127063333Y-71016666D01*
X127130000Y-71016666D01*
X127196666Y-71050000D01*
X127230000Y-71083333D01*
X127263333Y-71150000D01*
X127263333Y-71316666D01*
X127230000Y-71416666D01*
X126563333Y-71716666D02*
X127263333Y-71716666D01*
X127263333Y-71883333D01*
X127230000Y-71983333D01*
X127163333Y-72050000D01*
X127096666Y-72083333D01*
X126963333Y-72116666D01*
X126863333Y-72116666D01*
X126730000Y-72083333D01*
X126663333Y-72050000D01*
X126596666Y-71983333D01*
X126563333Y-71883333D01*
X126563333Y-71716666D01*
X127263333Y-72550000D02*
X127263333Y-72616666D01*
X127230000Y-72683333D01*
X127196666Y-72716666D01*
X127130000Y-72750000D01*
X126996666Y-72783333D01*
X126830000Y-72783333D01*
X126696666Y-72750000D01*
X126630000Y-72716666D01*
X126596666Y-72683333D01*
X126563333Y-72616666D01*
X126563333Y-72550000D01*
X126596666Y-72483333D01*
X126630000Y-72450000D01*
X126696666Y-72416666D01*
X126830000Y-72383333D01*
X126996666Y-72383333D01*
X127130000Y-72416666D01*
X127196666Y-72450000D01*
X127230000Y-72483333D01*
X127263333Y-72550000D01*
X126596666Y-68346666D02*
X126563333Y-68446666D01*
X126563333Y-68613333D01*
X126596666Y-68680000D01*
X126630000Y-68713333D01*
X126696666Y-68746666D01*
X126763333Y-68746666D01*
X126830000Y-68713333D01*
X126863333Y-68680000D01*
X126896666Y-68613333D01*
X126930000Y-68480000D01*
X126963333Y-68413333D01*
X126996666Y-68380000D01*
X127063333Y-68346666D01*
X127130000Y-68346666D01*
X127196666Y-68380000D01*
X127230000Y-68413333D01*
X127263333Y-68480000D01*
X127263333Y-68646666D01*
X127230000Y-68746666D01*
X126563333Y-69046666D02*
X127263333Y-69046666D01*
X127263333Y-69213333D01*
X127230000Y-69313333D01*
X127163333Y-69380000D01*
X127096666Y-69413333D01*
X126963333Y-69446666D01*
X126863333Y-69446666D01*
X126730000Y-69413333D01*
X126663333Y-69380000D01*
X126596666Y-69313333D01*
X126563333Y-69213333D01*
X126563333Y-69046666D01*
X126563333Y-70113333D02*
X126563333Y-69713333D01*
X126563333Y-69913333D02*
X127263333Y-69913333D01*
X127163333Y-69846666D01*
X127096666Y-69780000D01*
X127063333Y-69713333D01*
X126563333Y-66586666D02*
X126563333Y-66186666D01*
X126563333Y-66386666D02*
X127263333Y-66386666D01*
X127163333Y-66320000D01*
X127096666Y-66253333D01*
X127063333Y-66186666D01*
X127263333Y-67220000D02*
X127263333Y-66886666D01*
X126930000Y-66853333D01*
X126963333Y-66886666D01*
X126996666Y-66953333D01*
X126996666Y-67120000D01*
X126963333Y-67186666D01*
X126930000Y-67220000D01*
X126863333Y-67253333D01*
X126696666Y-67253333D01*
X126630000Y-67220000D01*
X126596666Y-67186666D01*
X126563333Y-67120000D01*
X126563333Y-66953333D01*
X126596666Y-66886666D01*
X126630000Y-66853333D01*
X127196666Y-64010000D02*
X127230000Y-64043333D01*
X127263333Y-64110000D01*
X127263333Y-64276666D01*
X127230000Y-64343333D01*
X127196666Y-64376666D01*
X127130000Y-64410000D01*
X127063333Y-64410000D01*
X126963333Y-64376666D01*
X126563333Y-63976666D01*
X126563333Y-64410000D01*
X127263333Y-61746666D02*
X127263333Y-61813333D01*
X127230000Y-61880000D01*
X127196666Y-61913333D01*
X127130000Y-61946666D01*
X126996666Y-61980000D01*
X126830000Y-61980000D01*
X126696666Y-61946666D01*
X126630000Y-61913333D01*
X126596666Y-61880000D01*
X126563333Y-61813333D01*
X126563333Y-61746666D01*
X126596666Y-61680000D01*
X126630000Y-61646666D01*
X126696666Y-61613333D01*
X126830000Y-61580000D01*
X126996666Y-61580000D01*
X127130000Y-61613333D01*
X127196666Y-61646666D01*
X127230000Y-61680000D01*
X127263333Y-61746666D01*
X127030000Y-59123333D02*
X126563333Y-59123333D01*
X127296666Y-58956666D02*
X126796666Y-58790000D01*
X126796666Y-59223333D01*
X126563333Y-56596666D02*
X126563333Y-56196666D01*
X126563333Y-56396666D02*
X127263333Y-56396666D01*
X127163333Y-56330000D01*
X127096666Y-56263333D01*
X127063333Y-56196666D01*
X127263333Y-57196666D02*
X127263333Y-57063333D01*
X127230000Y-56996666D01*
X127196666Y-56963333D01*
X127096666Y-56896666D01*
X126963333Y-56863333D01*
X126696666Y-56863333D01*
X126630000Y-56896666D01*
X126596666Y-56930000D01*
X126563333Y-56996666D01*
X126563333Y-57130000D01*
X126596666Y-57196666D01*
X126630000Y-57230000D01*
X126696666Y-57263333D01*
X126863333Y-57263333D01*
X126930000Y-57230000D01*
X126963333Y-57196666D01*
X126996666Y-57130000D01*
X126996666Y-56996666D01*
X126963333Y-56930000D01*
X126930000Y-56896666D01*
X126863333Y-56863333D01*
X126563333Y-53906666D02*
X126563333Y-53506666D01*
X126563333Y-53706666D02*
X127263333Y-53706666D01*
X127163333Y-53640000D01*
X127096666Y-53573333D01*
X127063333Y-53506666D01*
X127263333Y-54140000D02*
X127263333Y-54606666D01*
X126563333Y-54306666D01*
X127263333Y-51656666D02*
X127263333Y-51323333D01*
X126930000Y-51290000D01*
X126963333Y-51323333D01*
X126996666Y-51390000D01*
X126996666Y-51556666D01*
X126963333Y-51623333D01*
X126930000Y-51656666D01*
X126863333Y-51690000D01*
X126696666Y-51690000D01*
X126630000Y-51656666D01*
X126596666Y-51623333D01*
X126563333Y-51556666D01*
X126563333Y-51390000D01*
X126596666Y-51323333D01*
X126630000Y-51290000D01*
X126563333Y-48626666D02*
X126563333Y-48226666D01*
X126563333Y-48426666D02*
X127263333Y-48426666D01*
X127163333Y-48360000D01*
X127096666Y-48293333D01*
X127063333Y-48226666D01*
X126963333Y-49026666D02*
X126996666Y-48960000D01*
X127030000Y-48926666D01*
X127096666Y-48893333D01*
X127130000Y-48893333D01*
X127196666Y-48926666D01*
X127230000Y-48960000D01*
X127263333Y-49026666D01*
X127263333Y-49160000D01*
X127230000Y-49226666D01*
X127196666Y-49260000D01*
X127130000Y-49293333D01*
X127096666Y-49293333D01*
X127030000Y-49260000D01*
X126996666Y-49226666D01*
X126963333Y-49160000D01*
X126963333Y-49026666D01*
X126930000Y-48960000D01*
X126896666Y-48926666D01*
X126830000Y-48893333D01*
X126696666Y-48893333D01*
X126630000Y-48926666D01*
X126596666Y-48960000D01*
X126563333Y-49026666D01*
X126563333Y-49160000D01*
X126596666Y-49226666D01*
X126630000Y-49260000D01*
X126696666Y-49293333D01*
X126830000Y-49293333D01*
X126896666Y-49260000D01*
X126930000Y-49226666D01*
X126963333Y-49160000D01*
X126563333Y-46406666D02*
X126563333Y-46006666D01*
X126563333Y-46206666D02*
X127263333Y-46206666D01*
X127163333Y-46140000D01*
X127096666Y-46073333D01*
X127063333Y-46006666D01*
X126563333Y-46740000D02*
X126563333Y-46873333D01*
X126596666Y-46940000D01*
X126630000Y-46973333D01*
X126730000Y-47040000D01*
X126863333Y-47073333D01*
X127130000Y-47073333D01*
X127196666Y-47040000D01*
X127230000Y-47006666D01*
X127263333Y-46940000D01*
X127263333Y-46806666D01*
X127230000Y-46740000D01*
X127196666Y-46706666D01*
X127130000Y-46673333D01*
X126963333Y-46673333D01*
X126896666Y-46706666D01*
X126863333Y-46740000D01*
X126830000Y-46806666D01*
X126830000Y-46940000D01*
X126863333Y-47006666D01*
X126896666Y-47040000D01*
X126963333Y-47073333D01*
X127230000Y-43386666D02*
X127263333Y-43320000D01*
X127263333Y-43220000D01*
X127230000Y-43120000D01*
X127163333Y-43053333D01*
X127096666Y-43020000D01*
X126963333Y-42986666D01*
X126863333Y-42986666D01*
X126730000Y-43020000D01*
X126663333Y-43053333D01*
X126596666Y-43120000D01*
X126563333Y-43220000D01*
X126563333Y-43286666D01*
X126596666Y-43386666D01*
X126630000Y-43420000D01*
X126863333Y-43420000D01*
X126863333Y-43286666D01*
X126563333Y-43720000D02*
X127263333Y-43720000D01*
X126563333Y-44120000D01*
X127263333Y-44120000D01*
X126563333Y-44453333D02*
X127263333Y-44453333D01*
X127263333Y-44620000D01*
X127230000Y-44720000D01*
X127163333Y-44786666D01*
X127096666Y-44820000D01*
X126963333Y-44853333D01*
X126863333Y-44853333D01*
X126730000Y-44820000D01*
X126663333Y-44786666D01*
X126596666Y-44720000D01*
X126563333Y-44620000D01*
X126563333Y-44453333D01*
X127196666Y-40786666D02*
X127230000Y-40820000D01*
X127263333Y-40886666D01*
X127263333Y-41053333D01*
X127230000Y-41120000D01*
X127196666Y-41153333D01*
X127130000Y-41186666D01*
X127063333Y-41186666D01*
X126963333Y-41153333D01*
X126563333Y-40753333D01*
X126563333Y-41186666D01*
X126563333Y-41853333D02*
X126563333Y-41453333D01*
X126563333Y-41653333D02*
X127263333Y-41653333D01*
X127163333Y-41586666D01*
X127096666Y-41520000D01*
X127063333Y-41453333D01*
X126563333Y-38483333D02*
X126896666Y-38250000D01*
X126563333Y-38083333D02*
X127263333Y-38083333D01*
X127263333Y-38350000D01*
X127230000Y-38416666D01*
X127196666Y-38450000D01*
X127130000Y-38483333D01*
X127030000Y-38483333D01*
X126963333Y-38450000D01*
X126930000Y-38416666D01*
X126896666Y-38350000D01*
X126896666Y-38083333D01*
X127263333Y-38716666D02*
X126563333Y-39183333D01*
X127263333Y-39183333D02*
X126563333Y-38716666D01*
X127263333Y-35506666D02*
X127263333Y-35906666D01*
X126563333Y-35706666D02*
X127263333Y-35706666D01*
X127263333Y-36073333D02*
X126563333Y-36540000D01*
X127263333Y-36540000D02*
X126563333Y-36073333D01*
X127196666Y-32996666D02*
X127230000Y-33030000D01*
X127263333Y-33096666D01*
X127263333Y-33263333D01*
X127230000Y-33330000D01*
X127196666Y-33363333D01*
X127130000Y-33396666D01*
X127063333Y-33396666D01*
X126963333Y-33363333D01*
X126563333Y-32963333D01*
X126563333Y-33396666D01*
X127196666Y-33663333D02*
X127230000Y-33696666D01*
X127263333Y-33763333D01*
X127263333Y-33930000D01*
X127230000Y-33996666D01*
X127196666Y-34030000D01*
X127130000Y-34063333D01*
X127063333Y-34063333D01*
X126963333Y-34030000D01*
X126563333Y-33630000D01*
X126563333Y-34063333D01*
X127196666Y-30646666D02*
X127230000Y-30680000D01*
X127263333Y-30746666D01*
X127263333Y-30913333D01*
X127230000Y-30980000D01*
X127196666Y-31013333D01*
X127130000Y-31046666D01*
X127063333Y-31046666D01*
X126963333Y-31013333D01*
X126563333Y-30613333D01*
X126563333Y-31046666D01*
X127263333Y-31280000D02*
X127263333Y-31713333D01*
X126996666Y-31480000D01*
X126996666Y-31580000D01*
X126963333Y-31646666D01*
X126930000Y-31680000D01*
X126863333Y-31713333D01*
X126696666Y-31713333D01*
X126630000Y-31680000D01*
X126596666Y-31646666D01*
X126563333Y-31580000D01*
X126563333Y-31380000D01*
X126596666Y-31313333D01*
X126630000Y-31280000D01*
X127230000Y-28086666D02*
X127263333Y-28020000D01*
X127263333Y-27920000D01*
X127230000Y-27820000D01*
X127163333Y-27753333D01*
X127096666Y-27720000D01*
X126963333Y-27686666D01*
X126863333Y-27686666D01*
X126730000Y-27720000D01*
X126663333Y-27753333D01*
X126596666Y-27820000D01*
X126563333Y-27920000D01*
X126563333Y-27986666D01*
X126596666Y-28086666D01*
X126630000Y-28120000D01*
X126863333Y-28120000D01*
X126863333Y-27986666D01*
X126563333Y-28420000D02*
X127263333Y-28420000D01*
X126563333Y-28820000D01*
X127263333Y-28820000D01*
X126563333Y-29153333D02*
X127263333Y-29153333D01*
X127263333Y-29320000D01*
X127230000Y-29420000D01*
X127163333Y-29486666D01*
X127096666Y-29520000D01*
X126963333Y-29553333D01*
X126863333Y-29553333D01*
X126730000Y-29520000D01*
X126663333Y-29486666D01*
X126596666Y-29420000D01*
X126563333Y-29320000D01*
X126563333Y-29153333D01*
X106863333Y-74206666D02*
X106863333Y-73873333D01*
X106530000Y-73840000D01*
X106563333Y-73873333D01*
X106596666Y-73940000D01*
X106596666Y-74106666D01*
X106563333Y-74173333D01*
X106530000Y-74206666D01*
X106463333Y-74240000D01*
X106296666Y-74240000D01*
X106230000Y-74206666D01*
X106196666Y-74173333D01*
X106163333Y-74106666D01*
X106163333Y-73940000D01*
X106196666Y-73873333D01*
X106230000Y-73840000D01*
X106863333Y-74440000D02*
X106163333Y-74673333D01*
X106863333Y-74906666D01*
X106230000Y-71376666D02*
X106196666Y-71343333D01*
X106163333Y-71243333D01*
X106163333Y-71176666D01*
X106196666Y-71076666D01*
X106263333Y-71010000D01*
X106330000Y-70976666D01*
X106463333Y-70943333D01*
X106563333Y-70943333D01*
X106696666Y-70976666D01*
X106763333Y-71010000D01*
X106830000Y-71076666D01*
X106863333Y-71176666D01*
X106863333Y-71243333D01*
X106830000Y-71343333D01*
X106796666Y-71376666D01*
X106163333Y-71676666D02*
X106863333Y-71676666D01*
X106363333Y-71910000D01*
X106863333Y-72143333D01*
X106163333Y-72143333D01*
X106163333Y-72476666D02*
X106863333Y-72476666D01*
X106863333Y-72643333D01*
X106830000Y-72743333D01*
X106763333Y-72810000D01*
X106696666Y-72843333D01*
X106563333Y-72876666D01*
X106463333Y-72876666D01*
X106330000Y-72843333D01*
X106263333Y-72810000D01*
X106196666Y-72743333D01*
X106163333Y-72643333D01*
X106163333Y-72476666D01*
X106196666Y-68476666D02*
X106163333Y-68576666D01*
X106163333Y-68743333D01*
X106196666Y-68810000D01*
X106230000Y-68843333D01*
X106296666Y-68876666D01*
X106363333Y-68876666D01*
X106430000Y-68843333D01*
X106463333Y-68810000D01*
X106496666Y-68743333D01*
X106530000Y-68610000D01*
X106563333Y-68543333D01*
X106596666Y-68510000D01*
X106663333Y-68476666D01*
X106730000Y-68476666D01*
X106796666Y-68510000D01*
X106830000Y-68543333D01*
X106863333Y-68610000D01*
X106863333Y-68776666D01*
X106830000Y-68876666D01*
X106163333Y-69176666D02*
X106863333Y-69176666D01*
X106863333Y-69343333D01*
X106830000Y-69443333D01*
X106763333Y-69510000D01*
X106696666Y-69543333D01*
X106563333Y-69576666D01*
X106463333Y-69576666D01*
X106330000Y-69543333D01*
X106263333Y-69510000D01*
X106196666Y-69443333D01*
X106163333Y-69343333D01*
X106163333Y-69176666D01*
X106863333Y-69810000D02*
X106863333Y-70243333D01*
X106596666Y-70010000D01*
X106596666Y-70110000D01*
X106563333Y-70176666D01*
X106530000Y-70210000D01*
X106463333Y-70243333D01*
X106296666Y-70243333D01*
X106230000Y-70210000D01*
X106196666Y-70176666D01*
X106163333Y-70110000D01*
X106163333Y-69910000D01*
X106196666Y-69843333D01*
X106230000Y-69810000D01*
X106196666Y-65896666D02*
X106163333Y-65996666D01*
X106163333Y-66163333D01*
X106196666Y-66230000D01*
X106230000Y-66263333D01*
X106296666Y-66296666D01*
X106363333Y-66296666D01*
X106430000Y-66263333D01*
X106463333Y-66230000D01*
X106496666Y-66163333D01*
X106530000Y-66030000D01*
X106563333Y-65963333D01*
X106596666Y-65930000D01*
X106663333Y-65896666D01*
X106730000Y-65896666D01*
X106796666Y-65930000D01*
X106830000Y-65963333D01*
X106863333Y-66030000D01*
X106863333Y-66196666D01*
X106830000Y-66296666D01*
X106163333Y-66596666D02*
X106863333Y-66596666D01*
X106863333Y-66763333D01*
X106830000Y-66863333D01*
X106763333Y-66930000D01*
X106696666Y-66963333D01*
X106563333Y-66996666D01*
X106463333Y-66996666D01*
X106330000Y-66963333D01*
X106263333Y-66930000D01*
X106196666Y-66863333D01*
X106163333Y-66763333D01*
X106163333Y-66596666D01*
X106796666Y-67263333D02*
X106830000Y-67296666D01*
X106863333Y-67363333D01*
X106863333Y-67530000D01*
X106830000Y-67596666D01*
X106796666Y-67630000D01*
X106730000Y-67663333D01*
X106663333Y-67663333D01*
X106563333Y-67630000D01*
X106163333Y-67230000D01*
X106163333Y-67663333D01*
X106163333Y-64106666D02*
X106163333Y-63706666D01*
X106163333Y-63906666D02*
X106863333Y-63906666D01*
X106763333Y-63840000D01*
X106696666Y-63773333D01*
X106663333Y-63706666D01*
X106863333Y-64340000D02*
X106863333Y-64773333D01*
X106596666Y-64540000D01*
X106596666Y-64640000D01*
X106563333Y-64706666D01*
X106530000Y-64740000D01*
X106463333Y-64773333D01*
X106296666Y-64773333D01*
X106230000Y-64740000D01*
X106196666Y-64706666D01*
X106163333Y-64640000D01*
X106163333Y-64440000D01*
X106196666Y-64373333D01*
X106230000Y-64340000D01*
X106830000Y-61096666D02*
X106863333Y-61030000D01*
X106863333Y-60930000D01*
X106830000Y-60830000D01*
X106763333Y-60763333D01*
X106696666Y-60730000D01*
X106563333Y-60696666D01*
X106463333Y-60696666D01*
X106330000Y-60730000D01*
X106263333Y-60763333D01*
X106196666Y-60830000D01*
X106163333Y-60930000D01*
X106163333Y-60996666D01*
X106196666Y-61096666D01*
X106230000Y-61130000D01*
X106463333Y-61130000D01*
X106463333Y-60996666D01*
X106163333Y-61430000D02*
X106863333Y-61430000D01*
X106163333Y-61830000D01*
X106863333Y-61830000D01*
X106163333Y-62163333D02*
X106863333Y-62163333D01*
X106863333Y-62330000D01*
X106830000Y-62430000D01*
X106763333Y-62496666D01*
X106696666Y-62530000D01*
X106563333Y-62563333D01*
X106463333Y-62563333D01*
X106330000Y-62530000D01*
X106263333Y-62496666D01*
X106196666Y-62430000D01*
X106163333Y-62330000D01*
X106163333Y-62163333D01*
X106163333Y-59006666D02*
X106163333Y-58606666D01*
X106163333Y-58806666D02*
X106863333Y-58806666D01*
X106763333Y-58740000D01*
X106696666Y-58673333D01*
X106663333Y-58606666D01*
X106796666Y-59273333D02*
X106830000Y-59306666D01*
X106863333Y-59373333D01*
X106863333Y-59540000D01*
X106830000Y-59606666D01*
X106796666Y-59640000D01*
X106730000Y-59673333D01*
X106663333Y-59673333D01*
X106563333Y-59640000D01*
X106163333Y-59240000D01*
X106163333Y-59673333D01*
X106163333Y-56476666D02*
X106163333Y-56076666D01*
X106163333Y-56276666D02*
X106863333Y-56276666D01*
X106763333Y-56210000D01*
X106696666Y-56143333D01*
X106663333Y-56076666D01*
X106630000Y-57076666D02*
X106163333Y-57076666D01*
X106896666Y-56910000D02*
X106396666Y-56743333D01*
X106396666Y-57176666D01*
X106796666Y-53596666D02*
X106830000Y-53630000D01*
X106863333Y-53696666D01*
X106863333Y-53863333D01*
X106830000Y-53930000D01*
X106796666Y-53963333D01*
X106730000Y-53996666D01*
X106663333Y-53996666D01*
X106563333Y-53963333D01*
X106163333Y-53563333D01*
X106163333Y-53996666D01*
X106863333Y-54230000D02*
X106863333Y-54696666D01*
X106163333Y-54396666D01*
X106796666Y-50956666D02*
X106830000Y-50990000D01*
X106863333Y-51056666D01*
X106863333Y-51223333D01*
X106830000Y-51290000D01*
X106796666Y-51323333D01*
X106730000Y-51356666D01*
X106663333Y-51356666D01*
X106563333Y-51323333D01*
X106163333Y-50923333D01*
X106163333Y-51356666D01*
X106863333Y-51956666D02*
X106863333Y-51823333D01*
X106830000Y-51756666D01*
X106796666Y-51723333D01*
X106696666Y-51656666D01*
X106563333Y-51623333D01*
X106296666Y-51623333D01*
X106230000Y-51656666D01*
X106196666Y-51690000D01*
X106163333Y-51756666D01*
X106163333Y-51890000D01*
X106196666Y-51956666D01*
X106230000Y-51990000D01*
X106296666Y-52023333D01*
X106463333Y-52023333D01*
X106530000Y-51990000D01*
X106563333Y-51956666D01*
X106596666Y-51890000D01*
X106596666Y-51756666D01*
X106563333Y-51690000D01*
X106530000Y-51656666D01*
X106463333Y-51623333D01*
X106796666Y-48416666D02*
X106830000Y-48450000D01*
X106863333Y-48516666D01*
X106863333Y-48683333D01*
X106830000Y-48750000D01*
X106796666Y-48783333D01*
X106730000Y-48816666D01*
X106663333Y-48816666D01*
X106563333Y-48783333D01*
X106163333Y-48383333D01*
X106163333Y-48816666D01*
X106863333Y-49450000D02*
X106863333Y-49116666D01*
X106530000Y-49083333D01*
X106563333Y-49116666D01*
X106596666Y-49183333D01*
X106596666Y-49350000D01*
X106563333Y-49416666D01*
X106530000Y-49450000D01*
X106463333Y-49483333D01*
X106296666Y-49483333D01*
X106230000Y-49450000D01*
X106196666Y-49416666D01*
X106163333Y-49350000D01*
X106163333Y-49183333D01*
X106196666Y-49116666D01*
X106230000Y-49083333D01*
X106863333Y-45733333D02*
X106863333Y-46166666D01*
X106596666Y-45933333D01*
X106596666Y-46033333D01*
X106563333Y-46100000D01*
X106530000Y-46133333D01*
X106463333Y-46166666D01*
X106296666Y-46166666D01*
X106230000Y-46133333D01*
X106196666Y-46100000D01*
X106163333Y-46033333D01*
X106163333Y-45833333D01*
X106196666Y-45766666D01*
X106230000Y-45733333D01*
X106863333Y-46400000D02*
X106863333Y-46833333D01*
X106596666Y-46600000D01*
X106596666Y-46700000D01*
X106563333Y-46766666D01*
X106530000Y-46800000D01*
X106463333Y-46833333D01*
X106296666Y-46833333D01*
X106230000Y-46800000D01*
X106196666Y-46766666D01*
X106163333Y-46700000D01*
X106163333Y-46500000D01*
X106196666Y-46433333D01*
X106230000Y-46400000D01*
X106873333Y-43393333D02*
X106873333Y-43826666D01*
X106606666Y-43593333D01*
X106606666Y-43693333D01*
X106573333Y-43760000D01*
X106540000Y-43793333D01*
X106473333Y-43826666D01*
X106306666Y-43826666D01*
X106240000Y-43793333D01*
X106206666Y-43760000D01*
X106173333Y-43693333D01*
X106173333Y-43493333D01*
X106206666Y-43426666D01*
X106240000Y-43393333D01*
X106806666Y-44093333D02*
X106840000Y-44126666D01*
X106873333Y-44193333D01*
X106873333Y-44360000D01*
X106840000Y-44426666D01*
X106806666Y-44460000D01*
X106740000Y-44493333D01*
X106673333Y-44493333D01*
X106573333Y-44460000D01*
X106173333Y-44060000D01*
X106173333Y-44493333D01*
X106863333Y-40753333D02*
X106863333Y-41186666D01*
X106596666Y-40953333D01*
X106596666Y-41053333D01*
X106563333Y-41120000D01*
X106530000Y-41153333D01*
X106463333Y-41186666D01*
X106296666Y-41186666D01*
X106230000Y-41153333D01*
X106196666Y-41120000D01*
X106163333Y-41053333D01*
X106163333Y-40853333D01*
X106196666Y-40786666D01*
X106230000Y-40753333D01*
X106863333Y-41820000D02*
X106863333Y-41486666D01*
X106530000Y-41453333D01*
X106563333Y-41486666D01*
X106596666Y-41553333D01*
X106596666Y-41720000D01*
X106563333Y-41786666D01*
X106530000Y-41820000D01*
X106463333Y-41853333D01*
X106296666Y-41853333D01*
X106230000Y-41820000D01*
X106196666Y-41786666D01*
X106163333Y-41720000D01*
X106163333Y-41553333D01*
X106196666Y-41486666D01*
X106230000Y-41453333D01*
X106863333Y-38203333D02*
X106863333Y-38636666D01*
X106596666Y-38403333D01*
X106596666Y-38503333D01*
X106563333Y-38570000D01*
X106530000Y-38603333D01*
X106463333Y-38636666D01*
X106296666Y-38636666D01*
X106230000Y-38603333D01*
X106196666Y-38570000D01*
X106163333Y-38503333D01*
X106163333Y-38303333D01*
X106196666Y-38236666D01*
X106230000Y-38203333D01*
X106630000Y-39236666D02*
X106163333Y-39236666D01*
X106896666Y-39070000D02*
X106396666Y-38903333D01*
X106396666Y-39336666D01*
X106863333Y-35530000D02*
X106163333Y-35763333D01*
X106863333Y-35996666D01*
X106163333Y-36230000D02*
X106863333Y-36230000D01*
X106163333Y-36630000D01*
X106863333Y-36630000D01*
X106863333Y-32956666D02*
X106163333Y-33190000D01*
X106863333Y-33423333D01*
X106163333Y-33656666D02*
X106863333Y-33656666D01*
X106863333Y-33923333D01*
X106830000Y-33990000D01*
X106796666Y-34023333D01*
X106730000Y-34056666D01*
X106630000Y-34056666D01*
X106563333Y-34023333D01*
X106530000Y-33990000D01*
X106496666Y-33923333D01*
X106496666Y-33656666D01*
X106530000Y-30533333D02*
X106530000Y-30766666D01*
X106163333Y-30866666D02*
X106163333Y-30533333D01*
X106863333Y-30533333D01*
X106863333Y-30866666D01*
X106163333Y-31166666D02*
X106863333Y-31166666D01*
X106163333Y-31566666D01*
X106863333Y-31566666D01*
X106863333Y-27646666D02*
X106163333Y-27880000D01*
X106863333Y-28113333D01*
X106230000Y-28746666D02*
X106196666Y-28713333D01*
X106163333Y-28613333D01*
X106163333Y-28546666D01*
X106196666Y-28446666D01*
X106263333Y-28380000D01*
X106330000Y-28346666D01*
X106463333Y-28313333D01*
X106563333Y-28313333D01*
X106696666Y-28346666D01*
X106763333Y-28380000D01*
X106830000Y-28446666D01*
X106863333Y-28546666D01*
X106863333Y-28613333D01*
X106830000Y-28713333D01*
X106796666Y-28746666D01*
X106230000Y-29446666D02*
X106196666Y-29413333D01*
X106163333Y-29313333D01*
X106163333Y-29246666D01*
X106196666Y-29146666D01*
X106263333Y-29080000D01*
X106330000Y-29046666D01*
X106463333Y-29013333D01*
X106563333Y-29013333D01*
X106696666Y-29046666D01*
X106763333Y-29080000D01*
X106830000Y-29146666D01*
X106863333Y-29246666D01*
X106863333Y-29313333D01*
X106830000Y-29413333D01*
X106796666Y-29446666D01*
D12*
%TO.C,J2*%
X102937000Y-75625000D02*
X105597000Y-75625000D01*
X102937000Y-29845000D02*
X102937000Y-75625000D01*
X105597000Y-29845000D02*
X105597000Y-75625000D01*
X102937000Y-29845000D02*
X105597000Y-29845000D01*
X102937000Y-28575000D02*
X102937000Y-27245000D01*
X102937000Y-27245000D02*
X104267000Y-27245000D01*
D11*
%TO.C,D2*%
X119869000Y-71593000D02*
X119869000Y-70393000D01*
X120669000Y-71593000D02*
X120669000Y-70393000D01*
X120169000Y-72093000D02*
X120169000Y-72093000D01*
X120269000Y-72093000D02*
X120269000Y-72093000D01*
X120269000Y-72093000D02*
G75*
G02*
X120169000Y-72093000I-50000J0D01*
G01*
X120169000Y-72093000D02*
G75*
G02*
X120269000Y-72093000I50000J0D01*
G01*
%TO.C,D3*%
X117202000Y-71593000D02*
X117202000Y-70393000D01*
X118002000Y-71593000D02*
X118002000Y-70393000D01*
X117502000Y-72093000D02*
X117502000Y-72093000D01*
X117602000Y-72093000D02*
X117602000Y-72093000D01*
X117602000Y-72093000D02*
G75*
G02*
X117502000Y-72093000I-50000J0D01*
G01*
X117502000Y-72093000D02*
G75*
G02*
X117602000Y-72093000I50000J0D01*
G01*
%TO.C,D4*%
X114935000Y-72093000D02*
X114935000Y-72093000D01*
X114835000Y-72093000D02*
X114835000Y-72093000D01*
X115335000Y-71593000D02*
X115335000Y-70393000D01*
X114535000Y-71593000D02*
X114535000Y-70393000D01*
X114835000Y-72093000D02*
G75*
G02*
X114935000Y-72093000I50000J0D01*
G01*
X114935000Y-72093000D02*
G75*
G02*
X114835000Y-72093000I-50000J0D01*
G01*
D13*
%TO.C,D5*%
X109933000Y-69835000D02*
X112483000Y-69835000D01*
X110783000Y-71135000D02*
X112483000Y-71135000D01*
%TO.C,IC1*%
X115405500Y-48373500D02*
X118909500Y-48373500D01*
X118909500Y-48373500D02*
X118909500Y-54877500D01*
X118909500Y-54877500D02*
X115405500Y-54877500D01*
X115405500Y-54877500D02*
X115405500Y-48373500D01*
X113157500Y-48510500D02*
X114457500Y-48510500D01*
D14*
%TO.C,IC2*%
X119977000Y-63190000D02*
G75*
G03*
X119977000Y-63190000I-125000J0D01*
G01*
D12*
%TO.C,J1*%
X116277000Y-73716000D02*
X115877000Y-73266000D01*
X115877000Y-73266000D02*
X116677000Y-73266000D01*
X116677000Y-73266000D02*
X116277000Y-73716000D01*
X121427000Y-79316000D02*
X121427000Y-76516000D01*
X121427000Y-76516000D02*
X121727000Y-76516000D01*
X121727000Y-76516000D02*
X121727000Y-74966000D01*
X113727000Y-79316000D02*
X113727000Y-76516000D01*
X113427000Y-76516000D02*
X113727000Y-76516000D01*
X113427000Y-76516000D02*
X113427000Y-74966000D01*
%TO.C,J3*%
X127829000Y-75625000D02*
X130489000Y-75625000D01*
X127829000Y-29845000D02*
X127829000Y-75625000D01*
X130489000Y-29845000D02*
X130489000Y-75625000D01*
X127829000Y-29845000D02*
X130489000Y-29845000D01*
X127829000Y-28575000D02*
X127829000Y-27245000D01*
X127829000Y-27245000D02*
X129159000Y-27245000D01*
D13*
%TO.C,Q1*%
X123899000Y-55064000D02*
X123899000Y-54664000D01*
X123899000Y-54664000D02*
X126799000Y-54664000D01*
X126799000Y-54664000D02*
X126799000Y-55064000D01*
X126799000Y-55064000D02*
X123899000Y-55064000D01*
X123849000Y-56514000D02*
X123849000Y-55414000D01*
%TO.C,Q2*%
X126849000Y-59310000D02*
X126849000Y-60410000D01*
X123899000Y-60760000D02*
X126799000Y-60760000D01*
X123899000Y-61160000D02*
X123899000Y-60760000D01*
X126799000Y-61160000D02*
X123899000Y-61160000D01*
X126799000Y-60760000D02*
X126799000Y-61160000D01*
D12*
%TO.C,SW1*%
X125941000Y-78231000D02*
X126241000Y-78231000D01*
X126241000Y-78231000D02*
X126241000Y-74931000D01*
X126241000Y-74931000D02*
X125941000Y-74931000D01*
X123741000Y-78231000D02*
X123441000Y-78231000D01*
X123441000Y-78231000D02*
X123441000Y-74931000D01*
X123441000Y-74931000D02*
X123741000Y-74931000D01*
%TO.C,SW2*%
X109217000Y-75058000D02*
X109517000Y-75058000D01*
X109217000Y-78358000D02*
X109217000Y-75058000D01*
X109517000Y-78358000D02*
X109217000Y-78358000D01*
X112017000Y-75058000D02*
X111717000Y-75058000D01*
X112017000Y-78358000D02*
X112017000Y-75058000D01*
X111717000Y-78358000D02*
X112017000Y-78358000D01*
%TO.C,U1*%
X107593000Y-45549000D02*
X107593000Y-46329000D01*
X107593000Y-46329000D02*
X108593000Y-46329000D01*
X125833000Y-45549000D02*
X125833000Y-46329000D01*
X125833000Y-46329000D02*
X124833000Y-46329000D01*
X107593000Y-20584000D02*
X125833000Y-20584000D01*
X125833000Y-20584000D02*
X125833000Y-27004000D01*
X107593000Y-20584000D02*
X107593000Y-27004000D01*
X107593000Y-27004000D02*
X107213000Y-27004000D01*
%TO.C,C1*%
X111377000Y-52958420D02*
X111377000Y-53239580D01*
X112397000Y-52958420D02*
X112397000Y-53239580D01*
%TO.C,C2*%
X111138580Y-60581000D02*
X110857420Y-60581000D01*
X111138580Y-59561000D02*
X110857420Y-59561000D01*
%TO.C,C3*%
X110625836Y-57256000D02*
X110410164Y-57256000D01*
X110625836Y-56536000D02*
X110410164Y-56536000D01*
%TO.C,C5*%
X110597836Y-56113000D02*
X110382164Y-56113000D01*
X110597836Y-55393000D02*
X110382164Y-55393000D01*
%TO.C,C6*%
X116986164Y-60177000D02*
X117201836Y-60177000D01*
X116986164Y-59457000D02*
X117201836Y-59457000D01*
%TO.C,C7*%
X111377000Y-49810580D02*
X111377000Y-49529420D01*
X112397000Y-49810580D02*
X112397000Y-49529420D01*
%TO.C,C8*%
X110597836Y-57679000D02*
X110382164Y-57679000D01*
X110597836Y-58399000D02*
X110382164Y-58399000D01*
%TO.C,C9*%
X113136000Y-72818164D02*
X113136000Y-73033836D01*
X112416000Y-72818164D02*
X112416000Y-73033836D01*
%TO.C,D1*%
X109374000Y-52311500D02*
X109374000Y-54596500D01*
X109374000Y-54596500D02*
X110844000Y-54596500D01*
X110844000Y-54596500D02*
X110844000Y-52311500D01*
%TO.C,D6*%
X120496000Y-61353500D02*
X120496000Y-59068500D01*
X120496000Y-59068500D02*
X119026000Y-59068500D01*
X119026000Y-59068500D02*
X119026000Y-61353500D01*
%TO.C,R1*%
X109983000Y-49628359D02*
X109983000Y-49935641D01*
X110743000Y-49628359D02*
X110743000Y-49935641D01*
%TO.C,R2*%
X122808000Y-67537359D02*
X122808000Y-67844641D01*
X122048000Y-67537359D02*
X122048000Y-67844641D01*
%TO.C,R3*%
X123191000Y-67539359D02*
X123191000Y-67846641D01*
X123951000Y-67539359D02*
X123951000Y-67846641D01*
%TO.C,R4*%
X124586000Y-64110359D02*
X124586000Y-64417641D01*
X123826000Y-64110359D02*
X123826000Y-64417641D01*
%TO.C,R5*%
X122173000Y-59462641D02*
X122173000Y-59155359D01*
X121413000Y-59462641D02*
X121413000Y-59155359D01*
%TO.C,R6*%
X112243359Y-65025000D02*
X112550641Y-65025000D01*
X112243359Y-65785000D02*
X112550641Y-65785000D01*
%TO.C,R7*%
X114578641Y-59437000D02*
X114271359Y-59437000D01*
X114578641Y-60197000D02*
X114271359Y-60197000D01*
%TO.C,R8*%
X112239359Y-64642000D02*
X112546641Y-64642000D01*
X112239359Y-63882000D02*
X112546641Y-63882000D01*
%TO.C,R9*%
X112241359Y-66295000D02*
X112548641Y-66295000D01*
X112241359Y-67055000D02*
X112548641Y-67055000D01*
%TO.C,R10*%
X112243359Y-68452000D02*
X112550641Y-68452000D01*
X112243359Y-67692000D02*
X112550641Y-67692000D01*
%TO.C,R11*%
X122048000Y-64110359D02*
X122048000Y-64417641D01*
X122808000Y-64110359D02*
X122808000Y-64417641D01*
%TO.C,C4*%
X122576000Y-72790164D02*
X122576000Y-73005836D01*
X123296000Y-72790164D02*
X123296000Y-73005836D01*
%TO.C,IC1*%
D14*
X115917738Y-52200023D02*
X115917738Y-50930023D01*
X117248214Y-52079071D02*
X117187738Y-52139547D01*
X117006309Y-52200023D01*
X116885357Y-52200023D01*
X116703928Y-52139547D01*
X116582976Y-52018595D01*
X116522500Y-51897642D01*
X116462023Y-51655738D01*
X116462023Y-51474309D01*
X116522500Y-51232404D01*
X116582976Y-51111452D01*
X116703928Y-50990500D01*
X116885357Y-50930023D01*
X117006309Y-50930023D01*
X117187738Y-50990500D01*
X117248214Y-51050976D01*
X118457738Y-52200023D02*
X117732023Y-52200023D01*
X118094880Y-52200023D02*
X118094880Y-50930023D01*
X117973928Y-51111452D01*
X117852976Y-51232404D01*
X117732023Y-51292880D01*
%TO.C,IC2*%
X118113023Y-67152761D02*
X116843023Y-67152761D01*
X117992071Y-65822285D02*
X118052547Y-65882761D01*
X118113023Y-66064190D01*
X118113023Y-66185142D01*
X118052547Y-66366571D01*
X117931595Y-66487523D01*
X117810642Y-66548000D01*
X117568738Y-66608476D01*
X117387309Y-66608476D01*
X117145404Y-66548000D01*
X117024452Y-66487523D01*
X116903500Y-66366571D01*
X116843023Y-66185142D01*
X116843023Y-66064190D01*
X116903500Y-65882761D01*
X116963976Y-65822285D01*
X116963976Y-65338476D02*
X116903500Y-65278000D01*
X116843023Y-65157047D01*
X116843023Y-64854666D01*
X116903500Y-64733714D01*
X116963976Y-64673238D01*
X117084928Y-64612761D01*
X117205880Y-64612761D01*
X117387309Y-64673238D01*
X118113023Y-65398952D01*
X118113023Y-64612761D01*
%TD*%
M02*
