M48
; DRILL file {KiCad (5.1.10)-1} date 10/10/21 21:05:58
; FORMAT={-:-/ absolute / inch / decimal}
; #@! TF.CreationDate,2021-10-10T21:05:58-06:00
; #@! TF.GenerationSoftware,Kicad,Pcbnew,(5.1.10)-1
; #@! TF.FileFunction,Plated,1,2,PTH
FMAT,2
INCH
T1C0.0157
T2C0.0256
T3C0.0276
T4C0.0394
%
G90
G05
T1
X4.26Y-1.61
X4.26Y-1.66
X4.26Y-1.71
X4.26Y-1.76
X4.3415Y-2.3665
X4.3493Y-2.775
X4.37Y-2.43
X4.405Y-2.53
X4.405Y-2.575
X4.42Y-1.805
X4.4407Y-2.775
X4.47Y-1.81
X4.4806Y-2.0325
X4.4806Y-2.1227
X4.52Y-1.805
X4.525Y-2.355
X4.5583Y-1.4059
X4.56Y-1.995
X4.56Y-2.12
X4.57Y-1.805
X4.585Y-2.435
X4.595Y-1.69
X4.6Y-1.96
X4.6015Y-2.8866
X4.62Y-1.64
X4.6287Y-2.3543
X4.631Y-2.769
X4.632Y-2.855
X4.67Y-1.7994
X4.675Y-2.645
X4.725Y-1.795
X4.73Y-2.48
X4.75Y-1.91
X4.7629Y-2.32
X4.7748Y-2.6802
X4.775Y-1.795
X4.8Y-2.04
X4.82Y-1.8
X4.82Y-2.545
X4.82Y-2.685
X4.84Y-2.36
X4.8546Y-2.2463
X4.855Y-2.045
X4.9Y-2.63
X4.93Y-1.61
X4.93Y-1.71
X4.935Y-1.66
X4.935Y-1.76
X4.955Y-1.865
X4.9635Y-2.7874
T4
X4.105Y-1.125
X4.105Y-1.225
X4.105Y-1.325
X4.105Y-1.425
X4.105Y-1.525
X4.105Y-1.625
X4.105Y-1.725
X4.105Y-1.825
X4.105Y-1.925
X4.105Y-2.025
X4.105Y-2.125
X4.105Y-2.225
X4.105Y-2.325
X4.105Y-2.425
X4.105Y-2.525
X4.105Y-2.625
X4.105Y-2.725
X4.105Y-2.825
X4.105Y-2.925
X5.085Y-1.125
X5.085Y-1.225
X5.085Y-1.325
X5.085Y-1.425
X5.085Y-1.525
X5.085Y-1.625
X5.085Y-1.725
X5.085Y-1.825
X5.085Y-1.925
X5.085Y-2.025
X5.085Y-2.125
X5.085Y-2.225
X5.085Y-2.325
X5.085Y-2.425
X5.085Y-2.525
X5.085Y-2.625
X5.085Y-2.725
X5.085Y-2.825
X5.085Y-2.925
T2
G00X4.5337Y-2.9487
M15
G01X4.5337Y-2.9329
M16
G05
G00X4.7243Y-2.9487
M15
G01X4.7243Y-2.9329
M16
G05
T3
G00X4.5215Y-3.0687
M15
G01X4.5215Y-3.0491
M16
G05
G00X4.7365Y-3.0687
M15
G01X4.7365Y-3.0491
M16
G05
T0
M30
