%TF.GenerationSoftware,KiCad,Pcbnew,(5.1.10)-1*%
%TF.CreationDate,2021-10-10T21:05:51-06:00*%
%TF.ProjectId,ESP32_Boardv2.0,45535033-325f-4426-9f61-726476322e30,rev?*%
%TF.SameCoordinates,Original*%
%TF.FileFunction,Soldermask,Top*%
%TF.FilePolarity,Negative*%
%FSLAX46Y46*%
G04 Gerber Fmt 4.6, Leading zero omitted, Abs format (unit mm)*
G04 Created by KiCad (PCBNEW (5.1.10)-1) date 2021-10-10 21:05:51*
%MOMM*%
%LPD*%
G01*
G04 APERTURE LIST*
%ADD10O,1.700000X1.700000*%
%ADD11R,1.700000X1.700000*%
%ADD12R,0.400000X0.480000*%
%ADD13R,1.075000X0.500000*%
%ADD14R,1.300000X0.950000*%
%ADD15R,1.300000X3.250000*%
%ADD16R,0.300000X1.000000*%
%ADD17R,1.000000X0.300000*%
%ADD18R,3.350000X3.350000*%
%ADD19R,1.350000X2.000000*%
%ADD20R,1.825000X0.700000*%
%ADD21R,2.000000X1.500000*%
%ADD22R,0.400000X1.650000*%
%ADD23O,1.100000X1.500000*%
%ADD24O,1.350000X1.700000*%
%ADD25R,1.430000X2.500000*%
%ADD26R,0.600000X1.100000*%
%ADD27R,1.700000X0.900000*%
%ADD28R,2.000000X0.900000*%
%ADD29R,0.900000X2.000000*%
%ADD30R,5.000000X5.000000*%
G04 APERTURE END LIST*
D10*
%TO.C,J2*%
X104267000Y-74295000D03*
X104267000Y-71755000D03*
X104267000Y-69215000D03*
X104267000Y-66675000D03*
X104267000Y-64135000D03*
X104267000Y-61595000D03*
X104267000Y-59055000D03*
X104267000Y-56515000D03*
X104267000Y-53975000D03*
X104267000Y-51435000D03*
X104267000Y-48895000D03*
X104267000Y-46355000D03*
X104267000Y-43815000D03*
X104267000Y-41275000D03*
X104267000Y-38735000D03*
X104267000Y-36195000D03*
X104267000Y-33655000D03*
X104267000Y-31115000D03*
D11*
X104267000Y-28575000D03*
%TD*%
D12*
%TO.C,D2*%
X120269000Y-71653000D03*
X120269000Y-70333000D03*
%TD*%
%TO.C,D3*%
X117602000Y-71653000D03*
X117602000Y-70333000D03*
%TD*%
%TO.C,D4*%
X114935000Y-70333000D03*
X114935000Y-71653000D03*
%TD*%
D13*
%TO.C,D5*%
X110471000Y-70485000D03*
X112795000Y-70485000D03*
%TD*%
D14*
%TO.C,IC1*%
X113807500Y-49335500D03*
X113807500Y-51625500D03*
X113807500Y-53915500D03*
D15*
X120507500Y-51625500D03*
%TD*%
D16*
%TO.C,IC2*%
X119102000Y-63690000D03*
X118602000Y-63690000D03*
X118102000Y-63690000D03*
X117602000Y-63690000D03*
X117102000Y-63690000D03*
X116602000Y-63690000D03*
X116102000Y-63690000D03*
D17*
X115252000Y-64540000D03*
X115252000Y-65040000D03*
X115252000Y-65540000D03*
X115252000Y-66040000D03*
X115252000Y-66540000D03*
X115252000Y-67040000D03*
X115252000Y-67540000D03*
D16*
X116102000Y-68390000D03*
X116602000Y-68390000D03*
X117102000Y-68390000D03*
X117602000Y-68390000D03*
X118102000Y-68390000D03*
X118602000Y-68390000D03*
X119102000Y-68390000D03*
D17*
X119952000Y-67540000D03*
X119952000Y-67040000D03*
X119952000Y-66540000D03*
X119952000Y-66040000D03*
X119952000Y-65540000D03*
X119952000Y-65040000D03*
X119952000Y-64540000D03*
D18*
X117602000Y-66040000D03*
%TD*%
D19*
%TO.C,J1*%
X120327000Y-76766000D03*
X114847000Y-76766000D03*
D20*
X114627000Y-76016000D03*
X120577000Y-76016000D03*
D21*
X114727000Y-74716000D03*
X120477000Y-74696000D03*
D22*
X116277000Y-74816000D03*
X116927000Y-74816000D03*
X117577000Y-74816000D03*
X118227000Y-74816000D03*
X118877000Y-74816000D03*
D23*
X115157000Y-74696000D03*
X119997000Y-74696000D03*
D24*
X114847000Y-77696000D03*
X120307000Y-77696000D03*
D25*
X116617000Y-77966000D03*
X118537000Y-77966000D03*
%TD*%
D10*
%TO.C,J3*%
X129159000Y-74295000D03*
X129159000Y-71755000D03*
X129159000Y-69215000D03*
X129159000Y-66675000D03*
X129159000Y-64135000D03*
X129159000Y-61595000D03*
X129159000Y-59055000D03*
X129159000Y-56515000D03*
X129159000Y-53975000D03*
X129159000Y-51435000D03*
X129159000Y-48895000D03*
X129159000Y-46355000D03*
X129159000Y-43815000D03*
X129159000Y-41275000D03*
X129159000Y-38735000D03*
X129159000Y-36195000D03*
X129159000Y-33655000D03*
X129159000Y-31115000D03*
D11*
X129159000Y-28575000D03*
%TD*%
D26*
%TO.C,Q1*%
X124399000Y-55964000D03*
X126299000Y-55964000D03*
X125349000Y-53764000D03*
%TD*%
%TO.C,Q2*%
X125349000Y-62060000D03*
X124399000Y-59860000D03*
X126299000Y-59860000D03*
%TD*%
D27*
%TO.C,SW1*%
X124841000Y-74881000D03*
X124841000Y-78281000D03*
%TD*%
%TO.C,SW2*%
X110617000Y-78408000D03*
X110617000Y-75008000D03*
%TD*%
D28*
%TO.C,U1*%
X125213000Y-28194000D03*
X125213000Y-29464000D03*
X125213000Y-30734000D03*
X125213000Y-32004000D03*
X125213000Y-33274000D03*
X125213000Y-34544000D03*
X125213000Y-35814000D03*
X125213000Y-37084000D03*
X125213000Y-38354000D03*
X125213000Y-39624000D03*
X125213000Y-40894000D03*
X125213000Y-42164000D03*
X125213000Y-43434000D03*
X125213000Y-44704000D03*
D29*
X122428000Y-45704000D03*
X121158000Y-45704000D03*
X119888000Y-45704000D03*
X118618000Y-45704000D03*
X117348000Y-45704000D03*
X116078000Y-45704000D03*
X114808000Y-45704000D03*
X113538000Y-45704000D03*
X112268000Y-45704000D03*
X110998000Y-45704000D03*
D28*
X108213000Y-44704000D03*
X108213000Y-43434000D03*
X108213000Y-42164000D03*
X108213000Y-40894000D03*
X108213000Y-39624000D03*
X108213000Y-38354000D03*
X108213000Y-37084000D03*
X108213000Y-35814000D03*
X108213000Y-34544000D03*
X108213000Y-33274000D03*
X108213000Y-32004000D03*
X108213000Y-30734000D03*
X108213000Y-29464000D03*
X108213000Y-28194000D03*
D30*
X115713000Y-35694000D03*
%TD*%
%TO.C,C1*%
G36*
G01*
X111637000Y-51874000D02*
X112137000Y-51874000D01*
G75*
G02*
X112362000Y-52099000I0J-225000D01*
G01*
X112362000Y-52549000D01*
G75*
G02*
X112137000Y-52774000I-225000J0D01*
G01*
X111637000Y-52774000D01*
G75*
G02*
X111412000Y-52549000I0J225000D01*
G01*
X111412000Y-52099000D01*
G75*
G02*
X111637000Y-51874000I225000J0D01*
G01*
G37*
G36*
G01*
X111637000Y-53424000D02*
X112137000Y-53424000D01*
G75*
G02*
X112362000Y-53649000I0J-225000D01*
G01*
X112362000Y-54099000D01*
G75*
G02*
X112137000Y-54324000I-225000J0D01*
G01*
X111637000Y-54324000D01*
G75*
G02*
X111412000Y-54099000I0J225000D01*
G01*
X111412000Y-53649000D01*
G75*
G02*
X111637000Y-53424000I225000J0D01*
G01*
G37*
%TD*%
%TO.C,C2*%
G36*
G01*
X110673000Y-59821000D02*
X110673000Y-60321000D01*
G75*
G02*
X110448000Y-60546000I-225000J0D01*
G01*
X109998000Y-60546000D01*
G75*
G02*
X109773000Y-60321000I0J225000D01*
G01*
X109773000Y-59821000D01*
G75*
G02*
X109998000Y-59596000I225000J0D01*
G01*
X110448000Y-59596000D01*
G75*
G02*
X110673000Y-59821000I0J-225000D01*
G01*
G37*
G36*
G01*
X112223000Y-59821000D02*
X112223000Y-60321000D01*
G75*
G02*
X111998000Y-60546000I-225000J0D01*
G01*
X111548000Y-60546000D01*
G75*
G02*
X111323000Y-60321000I0J225000D01*
G01*
X111323000Y-59821000D01*
G75*
G02*
X111548000Y-59596000I225000J0D01*
G01*
X111998000Y-59596000D01*
G75*
G02*
X112223000Y-59821000I0J-225000D01*
G01*
G37*
%TD*%
%TO.C,C3*%
G36*
G01*
X110318000Y-56726000D02*
X110318000Y-57066000D01*
G75*
G02*
X110178000Y-57206000I-140000J0D01*
G01*
X109898000Y-57206000D01*
G75*
G02*
X109758000Y-57066000I0J140000D01*
G01*
X109758000Y-56726000D01*
G75*
G02*
X109898000Y-56586000I140000J0D01*
G01*
X110178000Y-56586000D01*
G75*
G02*
X110318000Y-56726000I0J-140000D01*
G01*
G37*
G36*
G01*
X111278000Y-56726000D02*
X111278000Y-57066000D01*
G75*
G02*
X111138000Y-57206000I-140000J0D01*
G01*
X110858000Y-57206000D01*
G75*
G02*
X110718000Y-57066000I0J140000D01*
G01*
X110718000Y-56726000D01*
G75*
G02*
X110858000Y-56586000I140000J0D01*
G01*
X111138000Y-56586000D01*
G75*
G02*
X111278000Y-56726000I0J-140000D01*
G01*
G37*
%TD*%
%TO.C,C5*%
G36*
G01*
X110290000Y-55583000D02*
X110290000Y-55923000D01*
G75*
G02*
X110150000Y-56063000I-140000J0D01*
G01*
X109870000Y-56063000D01*
G75*
G02*
X109730000Y-55923000I0J140000D01*
G01*
X109730000Y-55583000D01*
G75*
G02*
X109870000Y-55443000I140000J0D01*
G01*
X110150000Y-55443000D01*
G75*
G02*
X110290000Y-55583000I0J-140000D01*
G01*
G37*
G36*
G01*
X111250000Y-55583000D02*
X111250000Y-55923000D01*
G75*
G02*
X111110000Y-56063000I-140000J0D01*
G01*
X110830000Y-56063000D01*
G75*
G02*
X110690000Y-55923000I0J140000D01*
G01*
X110690000Y-55583000D01*
G75*
G02*
X110830000Y-55443000I140000J0D01*
G01*
X111110000Y-55443000D01*
G75*
G02*
X111250000Y-55583000I0J-140000D01*
G01*
G37*
%TD*%
%TO.C,C6*%
G36*
G01*
X116334000Y-59987000D02*
X116334000Y-59647000D01*
G75*
G02*
X116474000Y-59507000I140000J0D01*
G01*
X116754000Y-59507000D01*
G75*
G02*
X116894000Y-59647000I0J-140000D01*
G01*
X116894000Y-59987000D01*
G75*
G02*
X116754000Y-60127000I-140000J0D01*
G01*
X116474000Y-60127000D01*
G75*
G02*
X116334000Y-59987000I0J140000D01*
G01*
G37*
G36*
G01*
X117294000Y-59987000D02*
X117294000Y-59647000D01*
G75*
G02*
X117434000Y-59507000I140000J0D01*
G01*
X117714000Y-59507000D01*
G75*
G02*
X117854000Y-59647000I0J-140000D01*
G01*
X117854000Y-59987000D01*
G75*
G02*
X117714000Y-60127000I-140000J0D01*
G01*
X117434000Y-60127000D01*
G75*
G02*
X117294000Y-59987000I0J140000D01*
G01*
G37*
%TD*%
%TO.C,C7*%
G36*
G01*
X112137000Y-49345000D02*
X111637000Y-49345000D01*
G75*
G02*
X111412000Y-49120000I0J225000D01*
G01*
X111412000Y-48670000D01*
G75*
G02*
X111637000Y-48445000I225000J0D01*
G01*
X112137000Y-48445000D01*
G75*
G02*
X112362000Y-48670000I0J-225000D01*
G01*
X112362000Y-49120000D01*
G75*
G02*
X112137000Y-49345000I-225000J0D01*
G01*
G37*
G36*
G01*
X112137000Y-50895000D02*
X111637000Y-50895000D01*
G75*
G02*
X111412000Y-50670000I0J225000D01*
G01*
X111412000Y-50220000D01*
G75*
G02*
X111637000Y-49995000I225000J0D01*
G01*
X112137000Y-49995000D01*
G75*
G02*
X112362000Y-50220000I0J-225000D01*
G01*
X112362000Y-50670000D01*
G75*
G02*
X112137000Y-50895000I-225000J0D01*
G01*
G37*
%TD*%
%TO.C,C8*%
G36*
G01*
X111250000Y-57869000D02*
X111250000Y-58209000D01*
G75*
G02*
X111110000Y-58349000I-140000J0D01*
G01*
X110830000Y-58349000D01*
G75*
G02*
X110690000Y-58209000I0J140000D01*
G01*
X110690000Y-57869000D01*
G75*
G02*
X110830000Y-57729000I140000J0D01*
G01*
X111110000Y-57729000D01*
G75*
G02*
X111250000Y-57869000I0J-140000D01*
G01*
G37*
G36*
G01*
X110290000Y-57869000D02*
X110290000Y-58209000D01*
G75*
G02*
X110150000Y-58349000I-140000J0D01*
G01*
X109870000Y-58349000D01*
G75*
G02*
X109730000Y-58209000I0J140000D01*
G01*
X109730000Y-57869000D01*
G75*
G02*
X109870000Y-57729000I140000J0D01*
G01*
X110150000Y-57729000D01*
G75*
G02*
X110290000Y-57869000I0J-140000D01*
G01*
G37*
%TD*%
%TO.C,C9*%
G36*
G01*
X112606000Y-73126000D02*
X112946000Y-73126000D01*
G75*
G02*
X113086000Y-73266000I0J-140000D01*
G01*
X113086000Y-73546000D01*
G75*
G02*
X112946000Y-73686000I-140000J0D01*
G01*
X112606000Y-73686000D01*
G75*
G02*
X112466000Y-73546000I0J140000D01*
G01*
X112466000Y-73266000D01*
G75*
G02*
X112606000Y-73126000I140000J0D01*
G01*
G37*
G36*
G01*
X112606000Y-72166000D02*
X112946000Y-72166000D01*
G75*
G02*
X113086000Y-72306000I0J-140000D01*
G01*
X113086000Y-72586000D01*
G75*
G02*
X112946000Y-72726000I-140000J0D01*
G01*
X112606000Y-72726000D01*
G75*
G02*
X112466000Y-72586000I0J140000D01*
G01*
X112466000Y-72306000D01*
G75*
G02*
X112606000Y-72166000I140000J0D01*
G01*
G37*
%TD*%
%TO.C,D1*%
G36*
G01*
X110365250Y-52761500D02*
X109852750Y-52761500D01*
G75*
G02*
X109634000Y-52542750I0J218750D01*
G01*
X109634000Y-52105250D01*
G75*
G02*
X109852750Y-51886500I218750J0D01*
G01*
X110365250Y-51886500D01*
G75*
G02*
X110584000Y-52105250I0J-218750D01*
G01*
X110584000Y-52542750D01*
G75*
G02*
X110365250Y-52761500I-218750J0D01*
G01*
G37*
G36*
G01*
X110365250Y-54336500D02*
X109852750Y-54336500D01*
G75*
G02*
X109634000Y-54117750I0J218750D01*
G01*
X109634000Y-53680250D01*
G75*
G02*
X109852750Y-53461500I218750J0D01*
G01*
X110365250Y-53461500D01*
G75*
G02*
X110584000Y-53680250I0J-218750D01*
G01*
X110584000Y-54117750D01*
G75*
G02*
X110365250Y-54336500I-218750J0D01*
G01*
G37*
%TD*%
%TO.C,D6*%
G36*
G01*
X119504750Y-60903500D02*
X120017250Y-60903500D01*
G75*
G02*
X120236000Y-61122250I0J-218750D01*
G01*
X120236000Y-61559750D01*
G75*
G02*
X120017250Y-61778500I-218750J0D01*
G01*
X119504750Y-61778500D01*
G75*
G02*
X119286000Y-61559750I0J218750D01*
G01*
X119286000Y-61122250D01*
G75*
G02*
X119504750Y-60903500I218750J0D01*
G01*
G37*
G36*
G01*
X119504750Y-59328500D02*
X120017250Y-59328500D01*
G75*
G02*
X120236000Y-59547250I0J-218750D01*
G01*
X120236000Y-59984750D01*
G75*
G02*
X120017250Y-60203500I-218750J0D01*
G01*
X119504750Y-60203500D01*
G75*
G02*
X119286000Y-59984750I0J218750D01*
G01*
X119286000Y-59547250D01*
G75*
G02*
X119504750Y-59328500I218750J0D01*
G01*
G37*
%TD*%
%TO.C,R1*%
G36*
G01*
X110178000Y-49002000D02*
X110548000Y-49002000D01*
G75*
G02*
X110683000Y-49137000I0J-135000D01*
G01*
X110683000Y-49407000D01*
G75*
G02*
X110548000Y-49542000I-135000J0D01*
G01*
X110178000Y-49542000D01*
G75*
G02*
X110043000Y-49407000I0J135000D01*
G01*
X110043000Y-49137000D01*
G75*
G02*
X110178000Y-49002000I135000J0D01*
G01*
G37*
G36*
G01*
X110178000Y-50022000D02*
X110548000Y-50022000D01*
G75*
G02*
X110683000Y-50157000I0J-135000D01*
G01*
X110683000Y-50427000D01*
G75*
G02*
X110548000Y-50562000I-135000J0D01*
G01*
X110178000Y-50562000D01*
G75*
G02*
X110043000Y-50427000I0J135000D01*
G01*
X110043000Y-50157000D01*
G75*
G02*
X110178000Y-50022000I135000J0D01*
G01*
G37*
%TD*%
%TO.C,R2*%
G36*
G01*
X122243000Y-67931000D02*
X122613000Y-67931000D01*
G75*
G02*
X122748000Y-68066000I0J-135000D01*
G01*
X122748000Y-68336000D01*
G75*
G02*
X122613000Y-68471000I-135000J0D01*
G01*
X122243000Y-68471000D01*
G75*
G02*
X122108000Y-68336000I0J135000D01*
G01*
X122108000Y-68066000D01*
G75*
G02*
X122243000Y-67931000I135000J0D01*
G01*
G37*
G36*
G01*
X122243000Y-66911000D02*
X122613000Y-66911000D01*
G75*
G02*
X122748000Y-67046000I0J-135000D01*
G01*
X122748000Y-67316000D01*
G75*
G02*
X122613000Y-67451000I-135000J0D01*
G01*
X122243000Y-67451000D01*
G75*
G02*
X122108000Y-67316000I0J135000D01*
G01*
X122108000Y-67046000D01*
G75*
G02*
X122243000Y-66911000I135000J0D01*
G01*
G37*
%TD*%
%TO.C,R3*%
G36*
G01*
X123386000Y-66913000D02*
X123756000Y-66913000D01*
G75*
G02*
X123891000Y-67048000I0J-135000D01*
G01*
X123891000Y-67318000D01*
G75*
G02*
X123756000Y-67453000I-135000J0D01*
G01*
X123386000Y-67453000D01*
G75*
G02*
X123251000Y-67318000I0J135000D01*
G01*
X123251000Y-67048000D01*
G75*
G02*
X123386000Y-66913000I135000J0D01*
G01*
G37*
G36*
G01*
X123386000Y-67933000D02*
X123756000Y-67933000D01*
G75*
G02*
X123891000Y-68068000I0J-135000D01*
G01*
X123891000Y-68338000D01*
G75*
G02*
X123756000Y-68473000I-135000J0D01*
G01*
X123386000Y-68473000D01*
G75*
G02*
X123251000Y-68338000I0J135000D01*
G01*
X123251000Y-68068000D01*
G75*
G02*
X123386000Y-67933000I135000J0D01*
G01*
G37*
%TD*%
%TO.C,R4*%
G36*
G01*
X124021000Y-64504000D02*
X124391000Y-64504000D01*
G75*
G02*
X124526000Y-64639000I0J-135000D01*
G01*
X124526000Y-64909000D01*
G75*
G02*
X124391000Y-65044000I-135000J0D01*
G01*
X124021000Y-65044000D01*
G75*
G02*
X123886000Y-64909000I0J135000D01*
G01*
X123886000Y-64639000D01*
G75*
G02*
X124021000Y-64504000I135000J0D01*
G01*
G37*
G36*
G01*
X124021000Y-63484000D02*
X124391000Y-63484000D01*
G75*
G02*
X124526000Y-63619000I0J-135000D01*
G01*
X124526000Y-63889000D01*
G75*
G02*
X124391000Y-64024000I-135000J0D01*
G01*
X124021000Y-64024000D01*
G75*
G02*
X123886000Y-63889000I0J135000D01*
G01*
X123886000Y-63619000D01*
G75*
G02*
X124021000Y-63484000I135000J0D01*
G01*
G37*
%TD*%
%TO.C,R5*%
G36*
G01*
X121978000Y-60089000D02*
X121608000Y-60089000D01*
G75*
G02*
X121473000Y-59954000I0J135000D01*
G01*
X121473000Y-59684000D01*
G75*
G02*
X121608000Y-59549000I135000J0D01*
G01*
X121978000Y-59549000D01*
G75*
G02*
X122113000Y-59684000I0J-135000D01*
G01*
X122113000Y-59954000D01*
G75*
G02*
X121978000Y-60089000I-135000J0D01*
G01*
G37*
G36*
G01*
X121978000Y-59069000D02*
X121608000Y-59069000D01*
G75*
G02*
X121473000Y-58934000I0J135000D01*
G01*
X121473000Y-58664000D01*
G75*
G02*
X121608000Y-58529000I135000J0D01*
G01*
X121978000Y-58529000D01*
G75*
G02*
X122113000Y-58664000I0J-135000D01*
G01*
X122113000Y-58934000D01*
G75*
G02*
X121978000Y-59069000I-135000J0D01*
G01*
G37*
%TD*%
%TO.C,R6*%
G36*
G01*
X112637000Y-65590000D02*
X112637000Y-65220000D01*
G75*
G02*
X112772000Y-65085000I135000J0D01*
G01*
X113042000Y-65085000D01*
G75*
G02*
X113177000Y-65220000I0J-135000D01*
G01*
X113177000Y-65590000D01*
G75*
G02*
X113042000Y-65725000I-135000J0D01*
G01*
X112772000Y-65725000D01*
G75*
G02*
X112637000Y-65590000I0J135000D01*
G01*
G37*
G36*
G01*
X111617000Y-65590000D02*
X111617000Y-65220000D01*
G75*
G02*
X111752000Y-65085000I135000J0D01*
G01*
X112022000Y-65085000D01*
G75*
G02*
X112157000Y-65220000I0J-135000D01*
G01*
X112157000Y-65590000D01*
G75*
G02*
X112022000Y-65725000I-135000J0D01*
G01*
X111752000Y-65725000D01*
G75*
G02*
X111617000Y-65590000I0J135000D01*
G01*
G37*
%TD*%
%TO.C,R7*%
G36*
G01*
X115205000Y-59632000D02*
X115205000Y-60002000D01*
G75*
G02*
X115070000Y-60137000I-135000J0D01*
G01*
X114800000Y-60137000D01*
G75*
G02*
X114665000Y-60002000I0J135000D01*
G01*
X114665000Y-59632000D01*
G75*
G02*
X114800000Y-59497000I135000J0D01*
G01*
X115070000Y-59497000D01*
G75*
G02*
X115205000Y-59632000I0J-135000D01*
G01*
G37*
G36*
G01*
X114185000Y-59632000D02*
X114185000Y-60002000D01*
G75*
G02*
X114050000Y-60137000I-135000J0D01*
G01*
X113780000Y-60137000D01*
G75*
G02*
X113645000Y-60002000I0J135000D01*
G01*
X113645000Y-59632000D01*
G75*
G02*
X113780000Y-59497000I135000J0D01*
G01*
X114050000Y-59497000D01*
G75*
G02*
X114185000Y-59632000I0J-135000D01*
G01*
G37*
%TD*%
%TO.C,R8*%
G36*
G01*
X111613000Y-64447000D02*
X111613000Y-64077000D01*
G75*
G02*
X111748000Y-63942000I135000J0D01*
G01*
X112018000Y-63942000D01*
G75*
G02*
X112153000Y-64077000I0J-135000D01*
G01*
X112153000Y-64447000D01*
G75*
G02*
X112018000Y-64582000I-135000J0D01*
G01*
X111748000Y-64582000D01*
G75*
G02*
X111613000Y-64447000I0J135000D01*
G01*
G37*
G36*
G01*
X112633000Y-64447000D02*
X112633000Y-64077000D01*
G75*
G02*
X112768000Y-63942000I135000J0D01*
G01*
X113038000Y-63942000D01*
G75*
G02*
X113173000Y-64077000I0J-135000D01*
G01*
X113173000Y-64447000D01*
G75*
G02*
X113038000Y-64582000I-135000J0D01*
G01*
X112768000Y-64582000D01*
G75*
G02*
X112633000Y-64447000I0J135000D01*
G01*
G37*
%TD*%
%TO.C,R9*%
G36*
G01*
X112635000Y-66860000D02*
X112635000Y-66490000D01*
G75*
G02*
X112770000Y-66355000I135000J0D01*
G01*
X113040000Y-66355000D01*
G75*
G02*
X113175000Y-66490000I0J-135000D01*
G01*
X113175000Y-66860000D01*
G75*
G02*
X113040000Y-66995000I-135000J0D01*
G01*
X112770000Y-66995000D01*
G75*
G02*
X112635000Y-66860000I0J135000D01*
G01*
G37*
G36*
G01*
X111615000Y-66860000D02*
X111615000Y-66490000D01*
G75*
G02*
X111750000Y-66355000I135000J0D01*
G01*
X112020000Y-66355000D01*
G75*
G02*
X112155000Y-66490000I0J-135000D01*
G01*
X112155000Y-66860000D01*
G75*
G02*
X112020000Y-66995000I-135000J0D01*
G01*
X111750000Y-66995000D01*
G75*
G02*
X111615000Y-66860000I0J135000D01*
G01*
G37*
%TD*%
%TO.C,R10*%
G36*
G01*
X111617000Y-68257000D02*
X111617000Y-67887000D01*
G75*
G02*
X111752000Y-67752000I135000J0D01*
G01*
X112022000Y-67752000D01*
G75*
G02*
X112157000Y-67887000I0J-135000D01*
G01*
X112157000Y-68257000D01*
G75*
G02*
X112022000Y-68392000I-135000J0D01*
G01*
X111752000Y-68392000D01*
G75*
G02*
X111617000Y-68257000I0J135000D01*
G01*
G37*
G36*
G01*
X112637000Y-68257000D02*
X112637000Y-67887000D01*
G75*
G02*
X112772000Y-67752000I135000J0D01*
G01*
X113042000Y-67752000D01*
G75*
G02*
X113177000Y-67887000I0J-135000D01*
G01*
X113177000Y-68257000D01*
G75*
G02*
X113042000Y-68392000I-135000J0D01*
G01*
X112772000Y-68392000D01*
G75*
G02*
X112637000Y-68257000I0J135000D01*
G01*
G37*
%TD*%
%TO.C,R11*%
G36*
G01*
X122243000Y-63484000D02*
X122613000Y-63484000D01*
G75*
G02*
X122748000Y-63619000I0J-135000D01*
G01*
X122748000Y-63889000D01*
G75*
G02*
X122613000Y-64024000I-135000J0D01*
G01*
X122243000Y-64024000D01*
G75*
G02*
X122108000Y-63889000I0J135000D01*
G01*
X122108000Y-63619000D01*
G75*
G02*
X122243000Y-63484000I135000J0D01*
G01*
G37*
G36*
G01*
X122243000Y-64504000D02*
X122613000Y-64504000D01*
G75*
G02*
X122748000Y-64639000I0J-135000D01*
G01*
X122748000Y-64909000D01*
G75*
G02*
X122613000Y-65044000I-135000J0D01*
G01*
X122243000Y-65044000D01*
G75*
G02*
X122108000Y-64909000I0J135000D01*
G01*
X122108000Y-64639000D01*
G75*
G02*
X122243000Y-64504000I135000J0D01*
G01*
G37*
%TD*%
%TO.C,C4*%
G36*
G01*
X122766000Y-73098000D02*
X123106000Y-73098000D01*
G75*
G02*
X123246000Y-73238000I0J-140000D01*
G01*
X123246000Y-73518000D01*
G75*
G02*
X123106000Y-73658000I-140000J0D01*
G01*
X122766000Y-73658000D01*
G75*
G02*
X122626000Y-73518000I0J140000D01*
G01*
X122626000Y-73238000D01*
G75*
G02*
X122766000Y-73098000I140000J0D01*
G01*
G37*
G36*
G01*
X122766000Y-72138000D02*
X123106000Y-72138000D01*
G75*
G02*
X123246000Y-72278000I0J-140000D01*
G01*
X123246000Y-72558000D01*
G75*
G02*
X123106000Y-72698000I-140000J0D01*
G01*
X122766000Y-72698000D01*
G75*
G02*
X122626000Y-72558000I0J140000D01*
G01*
X122626000Y-72278000D01*
G75*
G02*
X122766000Y-72138000I140000J0D01*
G01*
G37*
%TD*%
M02*
