%TF.GenerationSoftware,KiCad,Pcbnew,(5.1.10)-1*%
%TF.CreationDate,2021-10-10T21:05:51-06:00*%
%TF.ProjectId,ESP32_Boardv2.0,45535033-325f-4426-9f61-726476322e30,rev?*%
%TF.SameCoordinates,Original*%
%TF.FileFunction,Soldermask,Bot*%
%TF.FilePolarity,Negative*%
%FSLAX46Y46*%
G04 Gerber Fmt 4.6, Leading zero omitted, Abs format (unit mm)*
G04 Created by KiCad (PCBNEW (5.1.10)-1) date 2021-10-10 21:05:51*
%MOMM*%
%LPD*%
G01*
G04 APERTURE LIST*
%ADD10O,1.700000X1.700000*%
%ADD11R,1.700000X1.700000*%
%ADD12O,1.100000X1.500000*%
%ADD13O,1.350000X1.700000*%
G04 APERTURE END LIST*
D10*
%TO.C,J2*%
X104267000Y-74295000D03*
X104267000Y-71755000D03*
X104267000Y-69215000D03*
X104267000Y-66675000D03*
X104267000Y-64135000D03*
X104267000Y-61595000D03*
X104267000Y-59055000D03*
X104267000Y-56515000D03*
X104267000Y-53975000D03*
X104267000Y-51435000D03*
X104267000Y-48895000D03*
X104267000Y-46355000D03*
X104267000Y-43815000D03*
X104267000Y-41275000D03*
X104267000Y-38735000D03*
X104267000Y-36195000D03*
X104267000Y-33655000D03*
X104267000Y-31115000D03*
D11*
X104267000Y-28575000D03*
%TD*%
D12*
%TO.C,J1*%
X115157000Y-74696000D03*
X119997000Y-74696000D03*
D13*
X114847000Y-77696000D03*
X120307000Y-77696000D03*
%TD*%
D10*
%TO.C,J3*%
X129159000Y-74295000D03*
X129159000Y-71755000D03*
X129159000Y-69215000D03*
X129159000Y-66675000D03*
X129159000Y-64135000D03*
X129159000Y-61595000D03*
X129159000Y-59055000D03*
X129159000Y-56515000D03*
X129159000Y-53975000D03*
X129159000Y-51435000D03*
X129159000Y-48895000D03*
X129159000Y-46355000D03*
X129159000Y-43815000D03*
X129159000Y-41275000D03*
X129159000Y-38735000D03*
X129159000Y-36195000D03*
X129159000Y-33655000D03*
X129159000Y-31115000D03*
D11*
X129159000Y-28575000D03*
%TD*%
M02*
